<svg xmlns="http://www.w3.org/2000/svg" xmlns:xlink="http://www.w3.org/1999/xlink" width="512" zoomAndPan="magnify" viewBox="0 0 384 383.999986" height="512" preserveAspectRatio="xMidYMid meet" version="1.0"><defs><clipPath id="f3f02c1a23"><path d="M 194 21.75 L 357 21.75 L 357 258 L 194 258 Z M 194 21.75 " clip-rule="nonzero"/></clipPath><clipPath id="7ab8a9b164"><path d="M 27 21.75 L 190 21.75 L 190 258 L 27 258 Z M 27 21.75 " clip-rule="nonzero"/></clipPath></defs><path fill="#efb465" d="M 226.34375 303.558594 C 163.5625 271.742188 110.59375 270.738281 110.59375 270.738281 C 148.242188 278.125 171.75 293.996094 171.75 293.996094 C 108.265625 270.714844 48.964844 288.363281 48.964844 288.363281 C 101.007812 329.640625 186.742188 327.1875 186.742188 327.1875 C 81.230469 347.441406 18.523438 284.53125 18.523438 284.53125 C 67.589844 345.3125 166.566406 337.828125 166.566406 337.828125 C 33.695312 364.5625 0 278.902344 0 278.902344 C 143.535156 218.820312 226.34375 303.558594 226.34375 303.558594 Z M 226.34375 303.558594 " fill-opacity="1" fill-rule="nonzero"/><path fill="#ef5e9c" d="M 157.65625 296.972656 C 220.4375 328.789062 273.40625 329.792969 273.40625 329.792969 C 235.757812 322.40625 212.25 306.535156 212.25 306.535156 C 275.734375 329.816406 335.035156 312.167969 335.035156 312.167969 C 282.992188 270.890625 197.257812 273.34375 197.257812 273.34375 C 302.769531 253.09375 365.476562 316 365.476562 316 C 316.410156 255.21875 217.433594 262.703125 217.433594 262.703125 C 350.304688 235.996094 384 321.65625 384 321.65625 C 240.464844 381.734375 157.65625 296.972656 157.65625 296.972656 Z M 157.65625 296.972656 " fill-opacity="1" fill-rule="nonzero"/><g clip-path="url(#f3f02c1a23)"><path fill="#36539b" d="M 246.09375 252.941406 L 287.375 210.335938 L 258.585938 250.8125 C 324.347656 235.945312 328.027344 172.613281 328.027344 172.613281 C 239.789062 176.089844 224.492188 238.699219 224.492188 238.699219 L 295.433594 200.421875 L 217.632812 257.523438 C 217.632812 257.523438 185.84375 235.695312 221.914062 167.855469 C 257.984375 100.015625 194.402344 21.765625 194.402344 21.765625 C 289.753906 91.980469 238.035156 186.378906 238.035156 186.378906 C 290.226562 139.417969 356.164062 151.761719 356.164062 151.761719 C 337.816406 270.664062 246.09375 252.941406 246.09375 252.941406 Z M 246.09375 252.941406 " fill-opacity="1" fill-rule="nonzero"/></g><g clip-path="url(#7ab8a9b164)"><path fill="#64a1d8" d="M 162.085938 167.882812 C 198.132812 235.71875 166.367188 257.546875 166.367188 257.546875 L 88.566406 200.449219 L 159.507812 238.722656 C 159.507812 238.722656 144.210938 176.117188 55.972656 172.636719 C 55.972656 172.636719 59.652344 235.96875 125.414062 250.839844 L 96.625 210.359375 L 137.90625 252.964844 C 137.90625 252.964844 46.183594 270.691406 27.859375 151.761719 C 27.859375 151.761719 93.796875 139.417969 145.988281 186.378906 C 145.988281 186.378906 94.273438 91.980469 189.621094 21.765625 C 189.597656 21.765625 126.039062 100.042969 162.085938 167.882812 Z M 162.085938 167.882812 " fill-opacity="1" fill-rule="nonzero"/></g><path fill="#36539b" d="M 213.777344 140.695312 C 213.777344 141.410156 213.742188 142.121094 213.671875 142.832031 C 213.605469 143.539062 213.5 144.246094 213.359375 144.945312 C 213.222656 145.644531 213.046875 146.335938 212.839844 147.015625 C 212.632812 147.699219 212.394531 148.371094 212.121094 149.03125 C 211.847656 149.6875 211.542969 150.332031 211.207031 150.960938 C 210.871094 151.589844 210.503906 152.203125 210.109375 152.792969 C 209.710938 153.386719 209.289062 153.960938 208.835938 154.511719 C 208.382812 155.0625 207.902344 155.589844 207.398438 156.09375 C 206.894531 156.597656 206.367188 157.078125 205.816406 157.53125 C 205.265625 157.984375 204.691406 158.40625 204.097656 158.804688 C 203.507812 159.199219 202.894531 159.566406 202.265625 159.902344 C 201.636719 160.238281 200.992188 160.542969 200.335938 160.816406 C 199.675781 161.089844 199.003906 161.328125 198.320312 161.535156 C 197.640625 161.742188 196.949219 161.917969 196.25 162.054688 C 195.550781 162.195312 194.84375 162.300781 194.132812 162.367188 C 193.425781 162.4375 192.714844 162.472656 192 162.472656 C 191.285156 162.472656 190.574219 162.4375 189.867188 162.367188 C 189.15625 162.300781 188.449219 162.195312 187.75 162.054688 C 187.050781 161.917969 186.359375 161.742188 185.679688 161.535156 C 184.996094 161.328125 184.324219 161.089844 183.664062 160.816406 C 183.007812 160.542969 182.363281 160.238281 181.734375 159.902344 C 181.105469 159.566406 180.492188 159.199219 179.902344 158.804688 C 179.308594 158.40625 178.734375 157.984375 178.183594 157.53125 C 177.632812 157.078125 177.105469 156.597656 176.601562 156.09375 C 176.097656 155.589844 175.617188 155.0625 175.164062 154.511719 C 174.710938 153.960938 174.289062 153.386719 173.890625 152.792969 C 173.496094 152.203125 173.128906 151.589844 172.792969 150.960938 C 172.457031 150.332031 172.152344 149.6875 171.878906 149.03125 C 171.605469 148.371094 171.367188 147.699219 171.160156 147.015625 C 170.953125 146.335938 170.777344 145.644531 170.640625 144.945312 C 170.5 144.246094 170.394531 143.539062 170.328125 142.832031 C 170.257812 142.121094 170.222656 141.410156 170.222656 140.695312 C 170.222656 139.980469 170.257812 139.269531 170.328125 138.5625 C 170.394531 137.851562 170.5 137.144531 170.640625 136.445312 C 170.777344 135.746094 170.953125 135.054688 171.160156 134.375 C 171.367188 133.691406 171.605469 133.019531 171.878906 132.359375 C 172.152344 131.703125 172.457031 131.058594 172.792969 130.429688 C 173.128906 129.800781 173.496094 129.1875 173.890625 128.597656 C 174.289062 128.003906 174.710938 127.429688 175.164062 126.878906 C 175.617188 126.328125 176.097656 125.800781 176.601562 125.296875 C 177.105469 124.792969 177.632812 124.3125 178.183594 123.859375 C 178.734375 123.40625 179.308594 122.984375 179.902344 122.585938 C 180.492188 122.191406 181.105469 121.824219 181.734375 121.488281 C 182.363281 121.152344 183.007812 120.847656 183.664062 120.574219 C 184.324219 120.300781 184.996094 120.0625 185.679688 119.855469 C 186.359375 119.648438 187.050781 119.476562 187.75 119.335938 C 188.449219 119.195312 189.15625 119.09375 189.867188 119.023438 C 190.574219 118.953125 191.285156 118.917969 192 118.917969 C 192.714844 118.917969 193.425781 118.953125 194.132812 119.023438 C 194.84375 119.09375 195.550781 119.195312 196.25 119.335938 C 196.949219 119.476562 197.640625 119.648438 198.320312 119.855469 C 199.003906 120.0625 199.675781 120.300781 200.335938 120.574219 C 200.992188 120.847656 201.636719 121.152344 202.265625 121.488281 C 202.894531 121.824219 203.507812 122.191406 204.097656 122.585938 C 204.691406 122.984375 205.265625 123.40625 205.816406 123.859375 C 206.367188 124.3125 206.894531 124.792969 207.398438 125.296875 C 207.902344 125.800781 208.382812 126.328125 208.835938 126.878906 C 209.289062 127.429688 209.710938 128.003906 210.109375 128.597656 C 210.503906 129.1875 210.871094 129.800781 211.207031 130.429688 C 211.542969 131.058594 211.847656 131.703125 212.121094 132.359375 C 212.394531 133.019531 212.632812 133.691406 212.839844 134.375 C 213.046875 135.054688 213.222656 135.746094 213.359375 136.445312 C 213.5 137.144531 213.605469 137.851562 213.671875 138.5625 C 213.742188 139.269531 213.777344 139.980469 213.777344 140.695312 Z M 213.777344 140.695312 " fill-opacity="1" fill-rule="nonzero"/><path fill="#64a1d8" d="M 219.9375 140.695312 C 219.9375 142.171875 219.859375 143.648438 219.734375 145.078125 C 218.132812 126 206.34375 111.207031 192 111.207031 C 177.65625 111.207031 165.867188 126.027344 164.265625 145.078125 C 164.140625 143.625 164.0625 142.171875 164.0625 140.695312 C 164.0625 119.566406 176.578125 102.421875 192 102.421875 C 207.421875 102.421875 219.9375 119.542969 219.9375 140.695312 Z M 219.9375 140.695312 " fill-opacity="1" fill-rule="nonzero"/></svg>