<svg xmlns="http://www.w3.org/2000/svg" xmlns:xlink="http://www.w3.org/1999/xlink" width="512" zoomAndPan="magnify" viewBox="0 0 384 383.999986" height="512" preserveAspectRatio="xMidYMid meet" version="1.0"><defs><clipPath id="f5a2161431"><path d="M 24.125 240 L 223 240 L 223 316 L 24.125 316 Z M 24.125 240 " clip-rule="nonzero"/></clipPath><clipPath id="e73ba6e08d"><path d="M 162 240 L 360.125 240 L 360.125 316 L 162 316 Z M 162 240 " clip-rule="nonzero"/></clipPath><clipPath id="0120968636"><path d="M 194 34.617188 L 336 34.617188 L 336 241 L 194 241 Z M 194 34.617188 " clip-rule="nonzero"/></clipPath><clipPath id="9e62e5f469"><path d="M 48 34.617188 L 191 34.617188 L 191 241 L 48 241 Z M 48 34.617188 " clip-rule="nonzero"/></clipPath></defs><g clip-path="url(#f5a2161431)"><path fill="#efb465" d="M 222.175781 281.195312 C 167.242188 253.355469 120.894531 252.480469 120.894531 252.480469 C 153.835938 258.941406 174.402344 272.828125 174.402344 272.828125 C 118.855469 252.457031 66.964844 267.898438 66.964844 267.898438 C 112.503906 304.019531 187.523438 301.871094 187.523438 301.871094 C 95.199219 319.589844 40.332031 264.546875 40.332031 264.546875 C 83.261719 317.730469 169.871094 311.179688 169.871094 311.179688 C 53.605469 334.574219 24.125 259.621094 24.125 259.621094 C 149.71875 207.054688 222.175781 281.195312 222.175781 281.195312 Z M 222.175781 281.195312 " fill-opacity="1" fill-rule="nonzero"/></g><g clip-path="url(#e73ba6e08d)"><path fill="#ef5e9c" d="M 162.070312 275.433594 C 217.003906 303.273438 263.351562 304.148438 263.351562 304.148438 C 230.410156 297.6875 209.84375 283.800781 209.84375 283.800781 C 265.390625 304.171875 317.28125 288.730469 317.28125 288.730469 C 271.742188 252.613281 196.722656 254.757812 196.722656 254.757812 C 289.046875 237.039062 343.914062 292.082031 343.914062 292.082031 C 300.984375 238.898438 214.378906 245.449219 214.378906 245.449219 C 330.640625 222.078125 360.125 297.03125 360.125 297.03125 C 234.527344 349.597656 162.070312 275.433594 162.070312 275.433594 Z M 162.070312 275.433594 " fill-opacity="1" fill-rule="nonzero"/></g><g clip-path="url(#0120968636)"><path fill="#36539b" d="M 239.457031 236.90625 L 275.574219 199.628906 L 250.386719 235.046875 C 307.925781 222.035156 311.148438 166.621094 311.148438 166.621094 C 233.9375 169.664062 220.554688 224.445312 220.554688 224.445312 L 282.628906 190.953125 L 214.550781 240.914062 C 214.550781 240.914062 186.734375 221.816406 218.296875 162.457031 C 249.859375 103.101562 194.226562 34.632812 194.226562 34.632812 C 277.65625 96.070312 232.402344 178.667969 232.402344 178.667969 C 278.074219 137.578125 335.765625 148.375 335.765625 148.375 C 319.710938 252.414062 239.457031 236.90625 239.457031 236.90625 Z M 239.457031 236.90625 " fill-opacity="1" fill-rule="nonzero"/></g><g clip-path="url(#9e62e5f469)"><path fill="#64a1d8" d="M 165.949219 162.480469 C 197.488281 221.835938 169.695312 240.9375 169.695312 240.9375 L 101.617188 190.976562 L 163.691406 224.464844 C 163.691406 224.464844 150.308594 169.6875 73.097656 166.640625 C 73.097656 166.640625 76.320312 222.058594 133.859375 235.066406 L 108.671875 199.648438 L 144.789062 236.929688 C 144.789062 236.929688 64.535156 252.4375 48.5 148.375 C 48.5 148.375 106.195312 137.578125 151.863281 178.667969 C 151.863281 178.667969 106.613281 96.070312 190.042969 34.632812 C 190.019531 34.632812 134.40625 103.125 165.949219 162.480469 Z M 165.949219 162.480469 " fill-opacity="1" fill-rule="nonzero"/></g><path fill="#36539b" d="M 211.179688 138.695312 C 211.179688 139.316406 211.148438 139.941406 211.085938 140.5625 C 211.027344 141.183594 210.933594 141.800781 210.8125 142.410156 C 210.691406 143.023438 210.539062 143.628906 210.359375 144.226562 C 210.175781 144.824219 209.96875 145.410156 209.730469 145.984375 C 209.488281 146.5625 209.222656 147.125 208.929688 147.675781 C 208.636719 148.226562 208.3125 148.761719 207.96875 149.28125 C 207.621094 149.800781 207.25 150.300781 206.855469 150.78125 C 206.457031 151.265625 206.039062 151.726562 205.597656 152.167969 C 205.15625 152.609375 204.695312 153.027344 204.210938 153.425781 C 203.730469 153.820312 203.230469 154.191406 202.710938 154.539062 C 202.191406 154.886719 201.65625 155.207031 201.105469 155.5 C 200.554688 155.792969 199.992188 156.058594 199.414062 156.300781 C 198.839844 156.539062 198.253906 156.746094 197.65625 156.929688 C 197.058594 157.109375 196.453125 157.261719 195.839844 157.382812 C 195.230469 157.503906 194.613281 157.597656 193.992188 157.65625 C 193.371094 157.71875 192.746094 157.75 192.125 157.75 C 191.5 157.75 190.875 157.71875 190.253906 157.65625 C 189.632812 157.597656 189.019531 157.503906 188.40625 157.382812 C 187.792969 157.261719 187.1875 157.109375 186.589844 156.929688 C 185.996094 156.746094 185.40625 156.539062 184.832031 156.300781 C 184.253906 156.058594 183.691406 155.792969 183.140625 155.5 C 182.589844 155.207031 182.054688 154.886719 181.535156 154.539062 C 181.015625 154.191406 180.515625 153.820312 180.035156 153.425781 C 179.550781 153.027344 179.089844 152.609375 178.648438 152.167969 C 178.207031 151.726562 177.789062 151.265625 177.394531 150.78125 C 176.996094 150.300781 176.625 149.800781 176.277344 149.28125 C 175.933594 148.761719 175.613281 148.226562 175.316406 147.675781 C 175.023438 147.125 174.757812 146.5625 174.519531 145.984375 C 174.277344 145.410156 174.070312 144.824219 173.886719 144.226562 C 173.707031 143.628906 173.554688 143.023438 173.433594 142.410156 C 173.3125 141.800781 173.21875 141.183594 173.160156 140.5625 C 173.097656 139.941406 173.066406 139.316406 173.066406 138.695312 C 173.066406 138.070312 173.097656 137.449219 173.160156 136.828125 C 173.21875 136.207031 173.3125 135.589844 173.433594 134.976562 C 173.554688 134.363281 173.707031 133.757812 173.886719 133.164062 C 174.070312 132.566406 174.277344 131.976562 174.519531 131.402344 C 174.757812 130.824219 175.023438 130.261719 175.316406 129.710938 C 175.613281 129.160156 175.933594 128.625 176.277344 128.105469 C 176.625 127.589844 176.996094 127.085938 177.394531 126.605469 C 177.789062 126.121094 178.207031 125.660156 178.648438 125.21875 C 179.089844 124.777344 179.550781 124.359375 180.035156 123.964844 C 180.515625 123.566406 181.015625 123.195312 181.535156 122.851562 C 182.054688 122.503906 182.589844 122.183594 183.140625 121.886719 C 183.691406 121.59375 184.253906 121.328125 184.832031 121.089844 C 185.40625 120.851562 185.996094 120.640625 186.589844 120.457031 C 187.1875 120.277344 187.792969 120.125 188.40625 120.003906 C 189.019531 119.882812 189.632812 119.792969 190.253906 119.730469 C 190.875 119.667969 191.5 119.636719 192.125 119.636719 C 192.746094 119.636719 193.371094 119.667969 193.992188 119.730469 C 194.613281 119.792969 195.230469 119.882812 195.839844 120.003906 C 196.453125 120.125 197.058594 120.277344 197.65625 120.457031 C 198.253906 120.640625 198.839844 120.851562 199.414062 121.089844 C 199.992188 121.328125 200.554688 121.59375 201.105469 121.886719 C 201.65625 122.183594 202.191406 122.503906 202.710938 122.851562 C 203.230469 123.195312 203.730469 123.566406 204.210938 123.964844 C 204.695312 124.359375 205.15625 124.777344 205.597656 125.21875 C 206.039062 125.660156 206.457031 126.121094 206.855469 126.605469 C 207.25 127.085938 207.621094 127.589844 207.96875 128.105469 C 208.3125 128.625 208.636719 129.160156 208.929688 129.710938 C 209.222656 130.261719 209.488281 130.824219 209.730469 131.402344 C 209.96875 131.976562 210.175781 132.566406 210.359375 133.164062 C 210.539062 133.757812 210.691406 134.363281 210.8125 134.976562 C 210.933594 135.589844 211.027344 136.207031 211.085938 136.828125 C 211.148438 137.449219 211.179688 138.070312 211.179688 138.695312 Z M 211.179688 138.695312 " fill-opacity="1" fill-rule="nonzero"/><path fill="#64a1d8" d="M 216.566406 138.695312 C 216.566406 139.984375 216.5 141.277344 216.390625 142.527344 C 214.992188 125.835938 204.675781 112.890625 192.125 112.890625 C 179.574219 112.890625 169.257812 125.859375 167.855469 142.527344 C 167.746094 141.257812 167.679688 139.984375 167.679688 138.695312 C 167.679688 120.207031 178.628906 105.203125 192.125 105.203125 C 205.617188 105.203125 216.566406 120.1875 216.566406 138.695312 Z M 216.566406 138.695312 " fill-opacity="1" fill-rule="nonzero"/></svg>