<svg xmlns="http://www.w3.org/2000/svg" xmlns:xlink="http://www.w3.org/1999/xlink" width="1200" zoomAndPan="magnify" viewBox="0 0 900 225" height="300" preserveAspectRatio="xMidYMid meet" version="1.0"><defs><filter x="0%" y="0%" width="100%" height="100%" id="31e371590f"><feColorMatrix values="0 0 0 0 1 0 0 0 0 1 0 0 0 0 1 0 0 0 1 0" color-interpolation-filters="sRGB"/></filter><g/><clipPath id="31c17796e4"><path d="M 106 162 L 259.308594 162 L 259.308594 221 L 106 221 Z M 106 162 " clip-rule="nonzero"/></clipPath><clipPath id="5fe75133e9"><path d="M 3.046875 0 L 844 0 L 844 225 L 3.046875 225 Z M 3.046875 0 " clip-rule="nonzero"/></clipPath><clipPath id="243ae6628e"><path d="M 0.046875 0 L 841 0 L 841 225 L 0.046875 225 Z M 0.046875 0 " clip-rule="nonzero"/></clipPath><clipPath id="59443dff2a"><path d="M 27.871094 0 L 841 0 L 841 225 L 27.871094 225 Z M 27.871094 0 " clip-rule="nonzero"/></clipPath><radialGradient gradientTransform="matrix(0.998977, 0, 0, 1.001023, 182.093452, 42.190671)" gradientUnits="userSpaceOnUse" r="632.870769" cx="28.258625" id="eff6d48269" cy="17.122548" fx="28.258625" fy="17.122548"><stop stop-opacity="1" stop-color="rgb(17.56134%, 36.987305%, 84.507751%)" offset="0"/><stop stop-opacity="1" stop-color="rgb(18.186951%, 37.245178%, 84.106445%)" offset="0.00390625"/><stop stop-opacity="1" stop-color="rgb(18.811035%, 37.501526%, 83.705139%)" offset="0.0078125"/><stop stop-opacity="1" stop-color="rgb(19.436646%, 37.759399%, 83.303833%)" offset="0.0117188"/><stop stop-opacity="1" stop-color="rgb(20.06073%, 38.017273%, 82.902527%)" offset="0.015625"/><stop stop-opacity="1" stop-color="rgb(20.68634%, 38.273621%, 82.501221%)" offset="0.0195312"/><stop stop-opacity="1" stop-color="rgb(21.311951%, 38.531494%, 82.099915%)" offset="0.0234375"/><stop stop-opacity="1" stop-color="rgb(21.936035%, 38.789368%, 81.698608%)" offset="0.0273438"/><stop stop-opacity="1" stop-color="rgb(22.561646%, 39.045715%, 81.297302%)" offset="0.03125"/><stop stop-opacity="1" stop-color="rgb(23.18573%, 39.303589%, 80.89447%)" offset="0.0351562"/><stop stop-opacity="1" stop-color="rgb(23.81134%, 39.561462%, 80.493164%)" offset="0.0390625"/><stop stop-opacity="1" stop-color="rgb(24.436951%, 39.81781%, 80.091858%)" offset="0.0429688"/><stop stop-opacity="1" stop-color="rgb(25.061035%, 40.075684%, 79.690552%)" offset="0.046875"/><stop stop-opacity="1" stop-color="rgb(25.686646%, 40.333557%, 79.289246%)" offset="0.0507812"/><stop stop-opacity="1" stop-color="rgb(26.31073%, 40.589905%, 78.887939%)" offset="0.0546875"/><stop stop-opacity="1" stop-color="rgb(26.93634%, 40.847778%, 78.486633%)" offset="0.0585938"/><stop stop-opacity="1" stop-color="rgb(27.561951%, 41.105652%, 78.085327%)" offset="0.0625"/><stop stop-opacity="1" stop-color="rgb(28.186035%, 41.362%, 77.684021%)" offset="0.0664062"/><stop stop-opacity="1" stop-color="rgb(28.811646%, 41.619873%, 77.282715%)" offset="0.0703125"/><stop stop-opacity="1" stop-color="rgb(29.43573%, 41.876221%, 76.881409%)" offset="0.0742188"/><stop stop-opacity="1" stop-color="rgb(30.06134%, 42.134094%, 76.480103%)" offset="0.078125"/><stop stop-opacity="1" stop-color="rgb(30.686951%, 42.391968%, 76.078796%)" offset="0.0820312"/><stop stop-opacity="1" stop-color="rgb(31.311035%, 42.648315%, 75.67749%)" offset="0.0859375"/><stop stop-opacity="1" stop-color="rgb(31.936646%, 42.906189%, 75.276184%)" offset="0.0898438"/><stop stop-opacity="1" stop-color="rgb(32.56073%, 43.164062%, 74.873352%)" offset="0.09375"/><stop stop-opacity="1" stop-color="rgb(33.18634%, 43.42041%, 74.472046%)" offset="0.0976562"/><stop stop-opacity="1" stop-color="rgb(33.811951%, 43.678284%, 74.07074%)" offset="0.101562"/><stop stop-opacity="1" stop-color="rgb(34.436035%, 43.936157%, 73.669434%)" offset="0.105469"/><stop stop-opacity="1" stop-color="rgb(35.061646%, 44.192505%, 73.268127%)" offset="0.109375"/><stop stop-opacity="1" stop-color="rgb(35.68573%, 44.450378%, 72.866821%)" offset="0.113281"/><stop stop-opacity="1" stop-color="rgb(36.31134%, 44.708252%, 72.465515%)" offset="0.117188"/><stop stop-opacity="1" stop-color="rgb(36.936951%, 44.9646%, 72.064209%)" offset="0.121094"/><stop stop-opacity="1" stop-color="rgb(37.561035%, 45.222473%, 71.662903%)" offset="0.125"/><stop stop-opacity="1" stop-color="rgb(38.186646%, 45.480347%, 71.261597%)" offset="0.128906"/><stop stop-opacity="1" stop-color="rgb(38.81073%, 45.736694%, 70.860291%)" offset="0.132812"/><stop stop-opacity="1" stop-color="rgb(39.43634%, 45.994568%, 70.458984%)" offset="0.136719"/><stop stop-opacity="1" stop-color="rgb(40.061951%, 46.252441%, 70.057678%)" offset="0.140625"/><stop stop-opacity="1" stop-color="rgb(40.686035%, 46.508789%, 69.656372%)" offset="0.144531"/><stop stop-opacity="1" stop-color="rgb(41.311646%, 46.766663%, 69.255066%)" offset="0.148438"/><stop stop-opacity="1" stop-color="rgb(41.93573%, 47.024536%, 68.852234%)" offset="0.152344"/><stop stop-opacity="1" stop-color="rgb(42.56134%, 47.280884%, 68.450928%)" offset="0.15625"/><stop stop-opacity="1" stop-color="rgb(43.186951%, 47.538757%, 68.049622%)" offset="0.160156"/><stop stop-opacity="1" stop-color="rgb(43.811035%, 47.795105%, 67.648315%)" offset="0.164062"/><stop stop-opacity="1" stop-color="rgb(44.436646%, 48.052979%, 67.247009%)" offset="0.167969"/><stop stop-opacity="1" stop-color="rgb(45.06073%, 48.310852%, 66.845703%)" offset="0.171875"/><stop stop-opacity="1" stop-color="rgb(45.68634%, 48.5672%, 66.444397%)" offset="0.175781"/><stop stop-opacity="1" stop-color="rgb(46.311951%, 48.825073%, 66.043091%)" offset="0.179688"/><stop stop-opacity="1" stop-color="rgb(46.936035%, 49.082947%, 65.641785%)" offset="0.183594"/><stop stop-opacity="1" stop-color="rgb(47.561646%, 49.339294%, 65.240479%)" offset="0.1875"/><stop stop-opacity="1" stop-color="rgb(48.18573%, 49.597168%, 64.839172%)" offset="0.191406"/><stop stop-opacity="1" stop-color="rgb(48.81134%, 49.855042%, 64.437866%)" offset="0.195312"/><stop stop-opacity="1" stop-color="rgb(49.436951%, 50.111389%, 64.03656%)" offset="0.199219"/><stop stop-opacity="1" stop-color="rgb(50.061035%, 50.369263%, 63.635254%)" offset="0.203125"/><stop stop-opacity="1" stop-color="rgb(50.686646%, 50.627136%, 63.233948%)" offset="0.207031"/><stop stop-opacity="1" stop-color="rgb(51.31073%, 50.883484%, 62.832642%)" offset="0.210938"/><stop stop-opacity="1" stop-color="rgb(51.93634%, 51.141357%, 62.42981%)" offset="0.214844"/><stop stop-opacity="1" stop-color="rgb(52.561951%, 51.399231%, 62.028503%)" offset="0.21875"/><stop stop-opacity="1" stop-color="rgb(53.186035%, 51.655579%, 61.627197%)" offset="0.222656"/><stop stop-opacity="1" stop-color="rgb(53.811646%, 51.913452%, 61.225891%)" offset="0.226562"/><stop stop-opacity="1" stop-color="rgb(54.43573%, 52.171326%, 60.824585%)" offset="0.230469"/><stop stop-opacity="1" stop-color="rgb(55.06134%, 52.427673%, 60.423279%)" offset="0.234375"/><stop stop-opacity="1" stop-color="rgb(55.686951%, 52.685547%, 60.021973%)" offset="0.238281"/><stop stop-opacity="1" stop-color="rgb(56.311035%, 52.94342%, 59.620667%)" offset="0.242188"/><stop stop-opacity="1" stop-color="rgb(56.936646%, 53.199768%, 59.21936%)" offset="0.246094"/><stop stop-opacity="1" stop-color="rgb(57.56073%, 53.457642%, 58.818054%)" offset="0.25"/><stop stop-opacity="1" stop-color="rgb(58.18634%, 53.715515%, 58.416748%)" offset="0.253906"/><stop stop-opacity="1" stop-color="rgb(58.811951%, 53.971863%, 58.015442%)" offset="0.257812"/><stop stop-opacity="1" stop-color="rgb(59.436035%, 54.229736%, 57.614136%)" offset="0.261719"/><stop stop-opacity="1" stop-color="rgb(60.061646%, 54.486084%, 57.21283%)" offset="0.265625"/><stop stop-opacity="1" stop-color="rgb(60.68573%, 54.743958%, 56.811523%)" offset="0.269531"/><stop stop-opacity="1" stop-color="rgb(61.31134%, 55.001831%, 56.408691%)" offset="0.273438"/><stop stop-opacity="1" stop-color="rgb(61.936951%, 55.258179%, 56.007385%)" offset="0.277344"/><stop stop-opacity="1" stop-color="rgb(62.561035%, 55.516052%, 55.606079%)" offset="0.28125"/><stop stop-opacity="1" stop-color="rgb(63.186646%, 55.773926%, 55.204773%)" offset="0.285156"/><stop stop-opacity="1" stop-color="rgb(63.81073%, 56.030273%, 54.803467%)" offset="0.289062"/><stop stop-opacity="1" stop-color="rgb(64.43634%, 56.288147%, 54.402161%)" offset="0.292969"/><stop stop-opacity="1" stop-color="rgb(65.061951%, 56.546021%, 54.000854%)" offset="0.296875"/><stop stop-opacity="1" stop-color="rgb(65.686035%, 56.802368%, 53.599548%)" offset="0.300781"/><stop stop-opacity="1" stop-color="rgb(66.311646%, 57.060242%, 53.198242%)" offset="0.304688"/><stop stop-opacity="1" stop-color="rgb(66.93573%, 57.318115%, 52.796936%)" offset="0.308594"/><stop stop-opacity="1" stop-color="rgb(67.56134%, 57.574463%, 52.39563%)" offset="0.3125"/><stop stop-opacity="1" stop-color="rgb(68.186951%, 57.832336%, 51.994324%)" offset="0.316406"/><stop stop-opacity="1" stop-color="rgb(68.811035%, 58.09021%, 51.593018%)" offset="0.320312"/><stop stop-opacity="1" stop-color="rgb(69.436646%, 58.346558%, 51.191711%)" offset="0.324219"/><stop stop-opacity="1" stop-color="rgb(70.06073%, 58.604431%, 50.790405%)" offset="0.328125"/><stop stop-opacity="1" stop-color="rgb(70.68634%, 58.862305%, 50.387573%)" offset="0.332031"/><stop stop-opacity="1" stop-color="rgb(71.311951%, 59.118652%, 49.986267%)" offset="0.335938"/><stop stop-opacity="1" stop-color="rgb(71.936035%, 59.376526%, 49.584961%)" offset="0.339844"/><stop stop-opacity="1" stop-color="rgb(72.561646%, 59.634399%, 49.183655%)" offset="0.34375"/><stop stop-opacity="1" stop-color="rgb(73.18573%, 59.890747%, 48.782349%)" offset="0.347656"/><stop stop-opacity="1" stop-color="rgb(73.81134%, 60.148621%, 48.381042%)" offset="0.351562"/><stop stop-opacity="1" stop-color="rgb(74.436951%, 60.404968%, 47.979736%)" offset="0.355469"/><stop stop-opacity="1" stop-color="rgb(75.061035%, 60.662842%, 47.57843%)" offset="0.359375"/><stop stop-opacity="1" stop-color="rgb(75.686646%, 60.920715%, 47.177124%)" offset="0.363281"/><stop stop-opacity="1" stop-color="rgb(76.31073%, 61.177063%, 46.775818%)" offset="0.367188"/><stop stop-opacity="1" stop-color="rgb(76.93634%, 61.434937%, 46.374512%)" offset="0.371094"/><stop stop-opacity="1" stop-color="rgb(77.561951%, 61.69281%, 45.973206%)" offset="0.375"/><stop stop-opacity="1" stop-color="rgb(78.186035%, 61.949158%, 45.571899%)" offset="0.378906"/><stop stop-opacity="1" stop-color="rgb(78.811646%, 62.207031%, 45.170593%)" offset="0.382812"/><stop stop-opacity="1" stop-color="rgb(79.43573%, 62.464905%, 44.769287%)" offset="0.386719"/><stop stop-opacity="1" stop-color="rgb(80.06134%, 62.721252%, 44.366455%)" offset="0.390625"/><stop stop-opacity="1" stop-color="rgb(80.686951%, 62.979126%, 43.965149%)" offset="0.394531"/><stop stop-opacity="1" stop-color="rgb(81.311035%, 63.237%, 43.563843%)" offset="0.398438"/><stop stop-opacity="1" stop-color="rgb(81.936646%, 63.493347%, 43.162537%)" offset="0.402344"/><stop stop-opacity="1" stop-color="rgb(82.56073%, 63.751221%, 42.76123%)" offset="0.40625"/><stop stop-opacity="1" stop-color="rgb(83.18634%, 64.009094%, 42.359924%)" offset="0.410156"/><stop stop-opacity="1" stop-color="rgb(83.811951%, 64.265442%, 41.958618%)" offset="0.414062"/><stop stop-opacity="1" stop-color="rgb(84.436035%, 64.523315%, 41.557312%)" offset="0.417969"/><stop stop-opacity="1" stop-color="rgb(85.061646%, 64.781189%, 41.156006%)" offset="0.421875"/><stop stop-opacity="1" stop-color="rgb(85.68573%, 65.037537%, 40.7547%)" offset="0.425781"/><stop stop-opacity="1" stop-color="rgb(86.31134%, 65.29541%, 40.353394%)" offset="0.429688"/><stop stop-opacity="1" stop-color="rgb(86.936951%, 65.553284%, 39.952087%)" offset="0.433594"/><stop stop-opacity="1" stop-color="rgb(87.561035%, 65.809631%, 39.550781%)" offset="0.4375"/><stop stop-opacity="1" stop-color="rgb(88.186646%, 66.067505%, 39.149475%)" offset="0.441406"/><stop stop-opacity="1" stop-color="rgb(88.81073%, 66.323853%, 38.748169%)" offset="0.445312"/><stop stop-opacity="1" stop-color="rgb(89.43634%, 66.581726%, 38.346863%)" offset="0.449219"/><stop stop-opacity="1" stop-color="rgb(90.061951%, 66.8396%, 37.944031%)" offset="0.453125"/><stop stop-opacity="1" stop-color="rgb(90.686035%, 67.095947%, 37.542725%)" offset="0.457031"/><stop stop-opacity="1" stop-color="rgb(91.311646%, 67.353821%, 37.141418%)" offset="0.460938"/><stop stop-opacity="1" stop-color="rgb(91.93573%, 67.611694%, 36.740112%)" offset="0.464844"/><stop stop-opacity="1" stop-color="rgb(92.56134%, 67.868042%, 36.338806%)" offset="0.46875"/><stop stop-opacity="1" stop-color="rgb(93.186951%, 68.125916%, 35.9375%)" offset="0.472656"/><stop stop-opacity="1" stop-color="rgb(93.811035%, 68.383789%, 35.536194%)" offset="0.476562"/><stop stop-opacity="1" stop-color="rgb(94.436646%, 68.640137%, 35.134888%)" offset="0.480469"/><stop stop-opacity="1" stop-color="rgb(95.06073%, 68.89801%, 34.733582%)" offset="0.484375"/><stop stop-opacity="1" stop-color="rgb(95.68634%, 69.155884%, 34.332275%)" offset="0.488281"/><stop stop-opacity="1" stop-color="rgb(96.311951%, 69.412231%, 33.930969%)" offset="0.492188"/><stop stop-opacity="1" stop-color="rgb(96.936035%, 69.670105%, 33.529663%)" offset="0.496094"/><stop stop-opacity="1" stop-color="rgb(97.235107%, 69.670105%, 33.43811%)" offset="0.5"/><stop stop-opacity="1" stop-color="rgb(97.207642%, 69.412231%, 33.654785%)" offset="0.503906"/><stop stop-opacity="1" stop-color="rgb(97.180176%, 69.155884%, 33.872986%)" offset="0.507812"/><stop stop-opacity="1" stop-color="rgb(97.15271%, 68.89801%, 34.089661%)" offset="0.511719"/><stop stop-opacity="1" stop-color="rgb(97.125244%, 68.640137%, 34.307861%)" offset="0.515625"/><stop stop-opacity="1" stop-color="rgb(97.097778%, 68.383789%, 34.526062%)" offset="0.519531"/><stop stop-opacity="1" stop-color="rgb(97.070312%, 68.125916%, 34.742737%)" offset="0.523438"/><stop stop-opacity="1" stop-color="rgb(97.042847%, 67.868042%, 34.960938%)" offset="0.527344"/><stop stop-opacity="1" stop-color="rgb(97.015381%, 67.611694%, 35.177612%)" offset="0.53125"/><stop stop-opacity="1" stop-color="rgb(96.987915%, 67.353821%, 35.395813%)" offset="0.535156"/><stop stop-opacity="1" stop-color="rgb(96.960449%, 67.095947%, 35.614014%)" offset="0.539062"/><stop stop-opacity="1" stop-color="rgb(96.932983%, 66.8396%, 35.830688%)" offset="0.542969"/><stop stop-opacity="1" stop-color="rgb(96.905518%, 66.581726%, 36.048889%)" offset="0.546875"/><stop stop-opacity="1" stop-color="rgb(96.878052%, 66.323853%, 36.265564%)" offset="0.550781"/><stop stop-opacity="1" stop-color="rgb(96.850586%, 66.067505%, 36.483765%)" offset="0.554688"/><stop stop-opacity="1" stop-color="rgb(96.82312%, 65.809631%, 36.701965%)" offset="0.558594"/><stop stop-opacity="1" stop-color="rgb(96.795654%, 65.553284%, 36.91864%)" offset="0.5625"/><stop stop-opacity="1" stop-color="rgb(96.768188%, 65.29541%, 37.136841%)" offset="0.566406"/><stop stop-opacity="1" stop-color="rgb(96.740723%, 65.037537%, 37.353516%)" offset="0.570312"/><stop stop-opacity="1" stop-color="rgb(96.713257%, 64.781189%, 37.571716%)" offset="0.574219"/><stop stop-opacity="1" stop-color="rgb(96.685791%, 64.523315%, 37.788391%)" offset="0.578125"/><stop stop-opacity="1" stop-color="rgb(96.658325%, 64.265442%, 38.006592%)" offset="0.582031"/><stop stop-opacity="1" stop-color="rgb(96.630859%, 64.009094%, 38.224792%)" offset="0.585938"/><stop stop-opacity="1" stop-color="rgb(96.603394%, 63.751221%, 38.441467%)" offset="0.589844"/><stop stop-opacity="1" stop-color="rgb(96.575928%, 63.493347%, 38.659668%)" offset="0.59375"/><stop stop-opacity="1" stop-color="rgb(96.548462%, 63.237%, 38.876343%)" offset="0.597656"/><stop stop-opacity="1" stop-color="rgb(96.520996%, 62.979126%, 39.094543%)" offset="0.601562"/><stop stop-opacity="1" stop-color="rgb(96.49353%, 62.721252%, 39.312744%)" offset="0.605469"/><stop stop-opacity="1" stop-color="rgb(96.466064%, 62.464905%, 39.529419%)" offset="0.609375"/><stop stop-opacity="1" stop-color="rgb(96.438599%, 62.207031%, 39.74762%)" offset="0.613281"/><stop stop-opacity="1" stop-color="rgb(96.411133%, 61.949158%, 39.964294%)" offset="0.617188"/><stop stop-opacity="1" stop-color="rgb(96.383667%, 61.69281%, 40.182495%)" offset="0.621094"/><stop stop-opacity="1" stop-color="rgb(96.356201%, 61.434937%, 40.400696%)" offset="0.625"/><stop stop-opacity="1" stop-color="rgb(96.327209%, 61.177063%, 40.617371%)" offset="0.628906"/><stop stop-opacity="1" stop-color="rgb(96.299744%, 60.920715%, 40.835571%)" offset="0.632812"/><stop stop-opacity="1" stop-color="rgb(96.272278%, 60.662842%, 41.052246%)" offset="0.636719"/><stop stop-opacity="1" stop-color="rgb(96.244812%, 60.404968%, 41.270447%)" offset="0.640625"/><stop stop-opacity="1" stop-color="rgb(96.217346%, 60.148621%, 41.488647%)" offset="0.644531"/><stop stop-opacity="1" stop-color="rgb(96.18988%, 59.890747%, 41.705322%)" offset="0.648438"/><stop stop-opacity="1" stop-color="rgb(96.162415%, 59.634399%, 41.923523%)" offset="0.652344"/><stop stop-opacity="1" stop-color="rgb(96.134949%, 59.376526%, 42.140198%)" offset="0.65625"/><stop stop-opacity="1" stop-color="rgb(96.107483%, 59.118652%, 42.358398%)" offset="0.660156"/><stop stop-opacity="1" stop-color="rgb(96.080017%, 58.862305%, 42.576599%)" offset="0.664062"/><stop stop-opacity="1" stop-color="rgb(96.052551%, 58.604431%, 42.793274%)" offset="0.667969"/><stop stop-opacity="1" stop-color="rgb(96.025085%, 58.346558%, 43.011475%)" offset="0.671875"/><stop stop-opacity="1" stop-color="rgb(95.99762%, 58.09021%, 43.228149%)" offset="0.675781"/><stop stop-opacity="1" stop-color="rgb(95.970154%, 57.832336%, 43.44635%)" offset="0.679688"/><stop stop-opacity="1" stop-color="rgb(95.942688%, 57.574463%, 43.663025%)" offset="0.683594"/><stop stop-opacity="1" stop-color="rgb(95.915222%, 57.318115%, 43.881226%)" offset="0.6875"/><stop stop-opacity="1" stop-color="rgb(95.887756%, 57.060242%, 44.099426%)" offset="0.691406"/><stop stop-opacity="1" stop-color="rgb(95.860291%, 56.802368%, 44.316101%)" offset="0.695312"/><stop stop-opacity="1" stop-color="rgb(95.832825%, 56.546021%, 44.534302%)" offset="0.699219"/><stop stop-opacity="1" stop-color="rgb(95.805359%, 56.288147%, 44.750977%)" offset="0.703125"/><stop stop-opacity="1" stop-color="rgb(95.777893%, 56.030273%, 44.969177%)" offset="0.707031"/><stop stop-opacity="1" stop-color="rgb(95.750427%, 55.773926%, 45.187378%)" offset="0.710938"/><stop stop-opacity="1" stop-color="rgb(95.722961%, 55.516052%, 45.404053%)" offset="0.714844"/><stop stop-opacity="1" stop-color="rgb(95.695496%, 55.258179%, 45.622253%)" offset="0.71875"/><stop stop-opacity="1" stop-color="rgb(95.66803%, 55.001831%, 45.838928%)" offset="0.722656"/><stop stop-opacity="1" stop-color="rgb(95.640564%, 54.743958%, 46.057129%)" offset="0.726562"/><stop stop-opacity="1" stop-color="rgb(95.613098%, 54.486084%, 46.27533%)" offset="0.730469"/><stop stop-opacity="1" stop-color="rgb(95.585632%, 54.229736%, 46.492004%)" offset="0.734375"/><stop stop-opacity="1" stop-color="rgb(95.558167%, 53.971863%, 46.710205%)" offset="0.738281"/><stop stop-opacity="1" stop-color="rgb(95.530701%, 53.715515%, 46.92688%)" offset="0.742188"/><stop stop-opacity="1" stop-color="rgb(95.503235%, 53.457642%, 47.145081%)" offset="0.746094"/><stop stop-opacity="1" stop-color="rgb(95.475769%, 53.199768%, 47.363281%)" offset="0.75"/><stop stop-opacity="1" stop-color="rgb(95.448303%, 52.94342%, 47.579956%)" offset="0.753906"/><stop stop-opacity="1" stop-color="rgb(95.420837%, 52.685547%, 47.798157%)" offset="0.757812"/><stop stop-opacity="1" stop-color="rgb(95.393372%, 52.427673%, 48.014832%)" offset="0.761719"/><stop stop-opacity="1" stop-color="rgb(95.365906%, 52.171326%, 48.233032%)" offset="0.765625"/><stop stop-opacity="1" stop-color="rgb(95.33844%, 51.913452%, 48.449707%)" offset="0.769531"/><stop stop-opacity="1" stop-color="rgb(95.310974%, 51.655579%, 48.667908%)" offset="0.773438"/><stop stop-opacity="1" stop-color="rgb(95.283508%, 51.399231%, 48.886108%)" offset="0.777344"/><stop stop-opacity="1" stop-color="rgb(95.256042%, 51.141357%, 49.102783%)" offset="0.78125"/><stop stop-opacity="1" stop-color="rgb(95.228577%, 50.883484%, 49.320984%)" offset="0.785156"/><stop stop-opacity="1" stop-color="rgb(95.201111%, 50.627136%, 49.537659%)" offset="0.789062"/><stop stop-opacity="1" stop-color="rgb(95.173645%, 50.369263%, 49.755859%)" offset="0.792969"/><stop stop-opacity="1" stop-color="rgb(95.146179%, 50.111389%, 49.97406%)" offset="0.796875"/><stop stop-opacity="1" stop-color="rgb(95.118713%, 49.855042%, 50.190735%)" offset="0.800781"/><stop stop-opacity="1" stop-color="rgb(95.089722%, 49.597168%, 50.408936%)" offset="0.804688"/><stop stop-opacity="1" stop-color="rgb(95.062256%, 49.339294%, 50.62561%)" offset="0.808594"/><stop stop-opacity="1" stop-color="rgb(95.03479%, 49.082947%, 50.843811%)" offset="0.8125"/><stop stop-opacity="1" stop-color="rgb(95.007324%, 48.825073%, 51.062012%)" offset="0.816406"/><stop stop-opacity="1" stop-color="rgb(94.979858%, 48.5672%, 51.278687%)" offset="0.820312"/><stop stop-opacity="1" stop-color="rgb(94.952393%, 48.310852%, 51.496887%)" offset="0.824219"/><stop stop-opacity="1" stop-color="rgb(94.924927%, 48.052979%, 51.713562%)" offset="0.828125"/><stop stop-opacity="1" stop-color="rgb(94.897461%, 47.795105%, 51.931763%)" offset="0.832031"/><stop stop-opacity="1" stop-color="rgb(94.869995%, 47.538757%, 52.149963%)" offset="0.835938"/><stop stop-opacity="1" stop-color="rgb(94.842529%, 47.280884%, 52.366638%)" offset="0.839844"/><stop stop-opacity="1" stop-color="rgb(94.815063%, 47.024536%, 52.584839%)" offset="0.84375"/><stop stop-opacity="1" stop-color="rgb(94.787598%, 46.766663%, 52.801514%)" offset="0.847656"/><stop stop-opacity="1" stop-color="rgb(94.760132%, 46.508789%, 53.019714%)" offset="0.851562"/><stop stop-opacity="1" stop-color="rgb(94.732666%, 46.252441%, 53.237915%)" offset="0.855469"/><stop stop-opacity="1" stop-color="rgb(94.7052%, 45.994568%, 53.45459%)" offset="0.859375"/><stop stop-opacity="1" stop-color="rgb(94.677734%, 45.736694%, 53.672791%)" offset="0.863281"/><stop stop-opacity="1" stop-color="rgb(94.650269%, 45.480347%, 53.889465%)" offset="0.867188"/><stop stop-opacity="1" stop-color="rgb(94.622803%, 45.222473%, 54.107666%)" offset="0.871094"/><stop stop-opacity="1" stop-color="rgb(94.595337%, 44.9646%, 54.324341%)" offset="0.875"/><stop stop-opacity="1" stop-color="rgb(94.567871%, 44.708252%, 54.542542%)" offset="0.878906"/><stop stop-opacity="1" stop-color="rgb(94.540405%, 44.450378%, 54.760742%)" offset="0.882812"/><stop stop-opacity="1" stop-color="rgb(94.512939%, 44.192505%, 54.977417%)" offset="0.886719"/><stop stop-opacity="1" stop-color="rgb(94.485474%, 43.936157%, 55.195618%)" offset="0.890625"/><stop stop-opacity="1" stop-color="rgb(94.458008%, 43.678284%, 55.412292%)" offset="0.894531"/><stop stop-opacity="1" stop-color="rgb(94.430542%, 43.42041%, 55.630493%)" offset="0.898438"/><stop stop-opacity="1" stop-color="rgb(94.403076%, 43.164062%, 55.848694%)" offset="0.902344"/><stop stop-opacity="1" stop-color="rgb(94.37561%, 42.906189%, 56.065369%)" offset="0.90625"/><stop stop-opacity="1" stop-color="rgb(94.348145%, 42.648315%, 56.283569%)" offset="0.910156"/><stop stop-opacity="1" stop-color="rgb(94.320679%, 42.391968%, 56.500244%)" offset="0.914062"/><stop stop-opacity="1" stop-color="rgb(94.293213%, 42.134094%, 56.718445%)" offset="0.917969"/><stop stop-opacity="1" stop-color="rgb(94.265747%, 41.876221%, 56.936646%)" offset="0.921875"/><stop stop-opacity="1" stop-color="rgb(94.238281%, 41.619873%, 57.15332%)" offset="0.925781"/><stop stop-opacity="1" stop-color="rgb(94.210815%, 41.362%, 57.371521%)" offset="0.929688"/><stop stop-opacity="1" stop-color="rgb(94.18335%, 41.105652%, 57.588196%)" offset="0.933594"/><stop stop-opacity="1" stop-color="rgb(94.155884%, 40.847778%, 57.806396%)" offset="0.9375"/><stop stop-opacity="1" stop-color="rgb(94.128418%, 40.589905%, 58.024597%)" offset="0.941406"/><stop stop-opacity="1" stop-color="rgb(94.100952%, 40.333557%, 58.241272%)" offset="0.945312"/><stop stop-opacity="1" stop-color="rgb(94.073486%, 40.075684%, 58.459473%)" offset="0.949219"/><stop stop-opacity="1" stop-color="rgb(94.046021%, 39.81781%, 58.676147%)" offset="0.953125"/><stop stop-opacity="1" stop-color="rgb(94.018555%, 39.561462%, 58.894348%)" offset="0.957031"/><stop stop-opacity="1" stop-color="rgb(93.991089%, 39.303589%, 59.112549%)" offset="0.960938"/><stop stop-opacity="1" stop-color="rgb(93.963623%, 39.045715%, 59.329224%)" offset="0.964844"/><stop stop-opacity="1" stop-color="rgb(93.936157%, 38.789368%, 59.547424%)" offset="0.96875"/><stop stop-opacity="1" stop-color="rgb(93.908691%, 38.531494%, 59.764099%)" offset="0.972656"/><stop stop-opacity="1" stop-color="rgb(93.881226%, 38.273621%, 59.9823%)" offset="0.976562"/><stop stop-opacity="1" stop-color="rgb(93.852234%, 38.017273%, 60.198975%)" offset="0.980469"/><stop stop-opacity="1" stop-color="rgb(93.824768%, 37.759399%, 60.417175%)" offset="0.984375"/><stop stop-opacity="1" stop-color="rgb(93.797302%, 37.501526%, 60.635376%)" offset="0.988281"/><stop stop-opacity="1" stop-color="rgb(93.769836%, 37.245178%, 60.852051%)" offset="0.992188"/><stop stop-opacity="1" stop-color="rgb(93.742371%, 36.987305%, 61.070251%)" offset="0.996094"/><stop stop-opacity="1" stop-color="rgb(93.728638%, 36.859131%, 61.178589%)" offset="1"/></radialGradient><clipPath id="0a49f5119d"><rect x="0" width="841" y="0" height="225"/></clipPath><clipPath id="ecd2268973"><path d="M 0.046875 0 L 841 0 L 841 225 L 0.046875 225 Z M 0.046875 0 " clip-rule="nonzero"/></clipPath><clipPath id="862496047e"><rect x="0" width="841" y="0" height="225"/></clipPath><clipPath id="034644b5ca"><rect x="0" width="841" y="0" height="225"/></clipPath><mask id="1e2a5f6121"><g filter="url(#31e371590f)"><g transform="matrix(1, 0, 0, 1, 0, -0.000000000000008531)"><g clip-path="url(#034644b5ca)"><g clip-path="url(#ecd2268973)"><g transform="matrix(1, 0, 0, 1, 0, -0.000000000000008531)"><g clip-path="url(#862496047e)"><g fill="#000000" fill-opacity="1"><g transform="translate(210.121263, 126.787486)"><g><path d="M 29.015625 0.734375 C 24.878906 0.734375 21.046875 -0.0390625 17.515625 -1.59375 C 13.992188 -3.144531 10.953125 -5.046875 8.390625 -7.296875 C 5.835938 -9.546875 3.953125 -11.707031 2.734375 -13.78125 L 4.921875 -21.90625 L 5.65625 -21.90625 C 5.65625 -21.90625 6.019531 -21.171875 6.75 -19.703125 C 7.476562 -18.242188 8.523438 -16.421875 9.890625 -14.234375 C 11.265625 -12.046875 12.910156 -9.851562 14.828125 -7.65625 C 16.742188 -5.46875 18.882812 -3.644531 21.25 -2.1875 C 23.625 -0.726562 26.210938 0 29.015625 0 C 30.046875 0 31.351562 -0.179688 32.9375 -0.546875 C 34.519531 -0.910156 36.128906 -1.53125 37.765625 -2.40625 C 39.410156 -3.289062 40.78125 -4.476562 41.875 -5.96875 C 42.976562 -7.46875 43.53125 -9.3125 43.53125 -11.5 C 43.53125 -14.476562 42.628906 -17.09375 40.828125 -19.34375 C 39.035156 -21.59375 36.785156 -23.539062 34.078125 -25.1875 C 31.367188 -26.832031 28.617188 -28.140625 25.828125 -29.109375 C 22.660156 -30.265625 19.691406 -31.675781 16.921875 -33.34375 C 14.160156 -35.019531 11.910156 -37.085938 10.171875 -39.546875 C 8.441406 -42.015625 7.578125 -44.953125 7.578125 -48.359375 C 7.578125 -51.703125 8.410156 -54.601562 10.078125 -57.0625 C 11.753906 -59.53125 13.988281 -61.445312 16.78125 -62.8125 C 19.582031 -64.1875 22.628906 -64.875 25.921875 -64.875 C 30.054688 -64.875 33.472656 -64.328125 36.171875 -63.234375 C 38.878906 -62.140625 41.113281 -60.691406 42.875 -58.890625 C 44.644531 -57.097656 46.109375 -55.140625 47.265625 -53.015625 L 45.078125 -44.984375 L 44.25 -44.984375 C 44.25 -44.984375 44.050781 -45.617188 43.65625 -46.890625 C 43.257812 -48.171875 42.632812 -49.769531 41.78125 -51.6875 C 40.9375 -53.601562 39.796875 -55.503906 38.359375 -57.390625 C 36.929688 -59.273438 35.195312 -60.859375 33.15625 -62.140625 C 31.125 -63.421875 28.710938 -64.0625 25.921875 -64.0625 C 24.941406 -64.0625 23.628906 -63.878906 21.984375 -63.515625 C 20.347656 -63.148438 18.722656 -62.523438 17.109375 -61.640625 C 15.492188 -60.753906 14.125 -59.566406 13 -58.078125 C 11.875 -56.585938 11.3125 -54.75 11.3125 -52.5625 C 11.3125 -49.644531 12.207031 -47.046875 14 -44.765625 C 15.800781 -42.484375 18.066406 -40.550781 20.796875 -38.96875 C 23.535156 -37.382812 26.304688 -36.078125 29.109375 -35.046875 C 32.273438 -33.941406 35.238281 -32.535156 38 -30.828125 C 40.769531 -29.128906 43.019531 -27.0625 44.75 -24.625 C 46.488281 -22.195312 47.359375 -19.25 47.359375 -15.78125 C 47.359375 -12.4375 46.503906 -9.53125 44.796875 -7.0625 C 43.097656 -4.601562 40.863281 -2.6875 38.09375 -1.3125 C 35.320312 0.0507812 32.296875 0.734375 29.015625 0.734375 Z M 29.015625 0.734375 "/></g></g></g><g fill="#000000" fill-opacity="1"><g transform="translate(258.848128, 126.787486)"><g><path d="M 3.828125 -23.71875 C 2.671875 -28.039062 2.394531 -32.316406 3 -36.546875 C 3.613281 -40.773438 4.96875 -44.710938 7.0625 -48.359375 C 9.164062 -52.015625 11.890625 -55.148438 15.234375 -57.765625 C 18.578125 -60.378906 22.410156 -62.265625 26.734375 -63.421875 C 31.054688 -64.578125 35.332031 -64.847656 39.5625 -64.234375 C 43.789062 -63.628906 47.726562 -62.273438 51.375 -60.171875 C 55.019531 -58.078125 58.148438 -55.359375 60.765625 -52.015625 C 63.390625 -48.671875 65.28125 -44.835938 66.4375 -40.515625 C 67.582031 -36.191406 67.851562 -31.929688 67.25 -27.734375 C 66.644531 -23.535156 65.289062 -19.613281 63.1875 -15.96875 C 61.09375 -12.320312 58.367188 -9.175781 55.015625 -6.53125 C 51.671875 -3.882812 47.84375 -1.984375 43.53125 -0.828125 C 39.207031 0.328125 34.945312 0.601562 30.75 0 C 26.550781 -0.601562 22.625 -1.953125 18.96875 -4.046875 C 15.320312 -6.148438 12.175781 -8.875 9.53125 -12.21875 C 6.882812 -15.570312 4.984375 -19.40625 3.828125 -23.71875 Z M 59.953125 -38.78125 C 59.035156 -42.375 57.539062 -45.8125 55.46875 -49.09375 C 53.40625 -52.375 50.898438 -55.226562 47.953125 -57.65625 C 45.003906 -60.09375 41.765625 -61.796875 38.234375 -62.765625 C 34.703125 -63.742188 30.960938 -63.71875 27.015625 -62.6875 C 23.054688 -61.65625 19.785156 -59.816406 17.203125 -57.171875 C 14.617188 -54.523438 12.65625 -51.421875 11.3125 -47.859375 C 9.976562 -44.296875 9.25 -40.566406 9.125 -36.671875 C 9 -32.785156 9.394531 -29.046875 10.3125 -25.453125 C 11.28125 -21.929688 12.796875 -18.523438 14.859375 -15.234375 C 16.929688 -11.953125 19.425781 -9.09375 22.34375 -6.65625 C 25.269531 -4.226562 28.523438 -2.507812 32.109375 -1.5 C 35.703125 -0.5 39.445312 -0.546875 43.34375 -1.640625 C 47.300781 -2.671875 50.554688 -4.507812 53.109375 -7.15625 C 55.660156 -9.800781 57.601562 -12.90625 58.9375 -16.46875 C 60.28125 -20.03125 61.023438 -23.753906 61.171875 -27.640625 C 61.328125 -31.535156 60.921875 -35.25 59.953125 -38.78125 Z M 59.953125 -38.78125 "/></g></g></g><g fill="#000000" fill-opacity="1"><g transform="translate(329.201134, 126.787486)"><g><path d="M 4.84375 -24.09375 L 4.84375 -56.203125 C 4.84375 -59.242188 4.566406 -61.175781 4.015625 -62 C 3.460938 -62.820312 3.035156 -63.234375 2.734375 -63.234375 L 2.734375 -64.0625 L 13.40625 -64.0625 L 13.40625 -63.234375 C 13.164062 -63.234375 12.753906 -62.820312 12.171875 -62 C 11.597656 -61.175781 11.3125 -59.242188 11.3125 -56.203125 L 11.3125 -24.09375 C 11.3125 -24.09375 11.3125 -23.53125 11.3125 -22.40625 C 11.3125 -21.28125 11.429688 -19.816406 11.671875 -18.015625 C 11.921875 -16.222656 12.363281 -14.320312 13 -12.3125 C 13.644531 -10.3125 14.585938 -8.410156 15.828125 -6.609375 C 17.078125 -4.816406 18.734375 -3.359375 20.796875 -2.234375 C 22.867188 -1.109375 25.457031 -0.546875 28.5625 -0.546875 C 30.8125 -0.546875 33.195312 -0.863281 35.71875 -1.5 C 38.25 -2.144531 40.640625 -3.285156 42.890625 -4.921875 C 45.140625 -6.566406 46.960938 -8.941406 48.359375 -12.046875 C 49.765625 -15.148438 50.46875 -19.164062 50.46875 -24.09375 L 50.46875 -49.1875 C 50.46875 -53.445312 50.054688 -56.851562 49.234375 -59.40625 C 48.410156 -61.957031 47.664062 -63.234375 47 -63.234375 L 47 -64.0625 L 54.75 -64.0625 L 54.75 -63.234375 C 54.082031 -63.234375 53.335938 -61.957031 52.515625 -59.40625 C 51.691406 -56.851562 51.28125 -53.445312 51.28125 -49.1875 L 51.28125 -24.09375 C 51.28125 -19.53125 50.703125 -15.742188 49.546875 -12.734375 C 48.390625 -9.722656 46.882812 -7.316406 45.03125 -5.515625 C 43.175781 -3.722656 41.226562 -2.398438 39.1875 -1.546875 C 37.15625 -0.703125 35.238281 -0.144531 33.4375 0.125 C 31.644531 0.40625 30.234375 0.546875 29.203125 0.546875 C 28.171875 0.546875 26.664062 0.394531 24.6875 0.09375 C 22.707031 -0.207031 20.59375 -0.828125 18.34375 -1.765625 C 16.09375 -2.710938 13.929688 -4.082031 11.859375 -5.875 C 9.796875 -7.675781 8.109375 -10.050781 6.796875 -13 C 5.492188 -15.945312 4.84375 -19.644531 4.84375 -24.09375 Z M 4.84375 -24.09375 "/></g></g></g><g fill="#000000" fill-opacity="1"><g transform="translate(386.688019, 126.787486)"><g><path d="M 13.5 -63.96875 L 13.5 -63.140625 C 13.257812 -63.140625 12.847656 -62.726562 12.265625 -61.90625 C 11.691406 -61.09375 11.40625 -59.164062 11.40625 -56.125 L 11.40625 -0.828125 L 21.71875 -0.828125 C 26.28125 -1.304688 30.019531 -2.140625 32.9375 -3.328125 C 35.863281 -4.515625 38.722656 -5.960938 41.515625 -7.671875 L 42.34375 -7.671875 L 42.34375 0.09375 L 34.5 0.09375 L 32.125 0 L 2.734375 0 L 2.734375 -0.828125 C 3.035156 -0.828125 3.460938 -1.25 4.015625 -2.09375 C 4.566406 -2.945312 4.84375 -4.863281 4.84375 -7.84375 L 4.84375 -56.125 C 4.84375 -59.164062 4.566406 -61.09375 4.015625 -61.90625 C 3.460938 -62.726562 3.035156 -63.140625 2.734375 -63.140625 L 2.734375 -63.96875 Z M 13.5 -63.96875 "/></g></g></g><g fill="#000000" fill-opacity="1"><g transform="translate(431.765043, 126.787486)"><g/></g></g><g fill="#000000" fill-opacity="1"><g transform="translate(452.113574, 126.787486)"><g><path d="M 29.015625 0.734375 C 24.878906 0.734375 21.046875 -0.0390625 17.515625 -1.59375 C 13.992188 -3.144531 10.953125 -5.046875 8.390625 -7.296875 C 5.835938 -9.546875 3.953125 -11.707031 2.734375 -13.78125 L 4.921875 -21.90625 L 5.65625 -21.90625 C 5.65625 -21.90625 6.019531 -21.171875 6.75 -19.703125 C 7.476562 -18.242188 8.523438 -16.421875 9.890625 -14.234375 C 11.265625 -12.046875 12.910156 -9.851562 14.828125 -7.65625 C 16.742188 -5.46875 18.882812 -3.644531 21.25 -2.1875 C 23.625 -0.726562 26.210938 0 29.015625 0 C 30.046875 0 31.351562 -0.179688 32.9375 -0.546875 C 34.519531 -0.910156 36.128906 -1.53125 37.765625 -2.40625 C 39.410156 -3.289062 40.78125 -4.476562 41.875 -5.96875 C 42.976562 -7.46875 43.53125 -9.3125 43.53125 -11.5 C 43.53125 -14.476562 42.628906 -17.09375 40.828125 -19.34375 C 39.035156 -21.59375 36.785156 -23.539062 34.078125 -25.1875 C 31.367188 -26.832031 28.617188 -28.140625 25.828125 -29.109375 C 22.660156 -30.265625 19.691406 -31.675781 16.921875 -33.34375 C 14.160156 -35.019531 11.910156 -37.085938 10.171875 -39.546875 C 8.441406 -42.015625 7.578125 -44.953125 7.578125 -48.359375 C 7.578125 -51.703125 8.410156 -54.601562 10.078125 -57.0625 C 11.753906 -59.53125 13.988281 -61.445312 16.78125 -62.8125 C 19.582031 -64.1875 22.628906 -64.875 25.921875 -64.875 C 30.054688 -64.875 33.472656 -64.328125 36.171875 -63.234375 C 38.878906 -62.140625 41.113281 -60.691406 42.875 -58.890625 C 44.644531 -57.097656 46.109375 -55.140625 47.265625 -53.015625 L 45.078125 -44.984375 L 44.25 -44.984375 C 44.25 -44.984375 44.050781 -45.617188 43.65625 -46.890625 C 43.257812 -48.171875 42.632812 -49.769531 41.78125 -51.6875 C 40.9375 -53.601562 39.796875 -55.503906 38.359375 -57.390625 C 36.929688 -59.273438 35.195312 -60.859375 33.15625 -62.140625 C 31.125 -63.421875 28.710938 -64.0625 25.921875 -64.0625 C 24.941406 -64.0625 23.628906 -63.878906 21.984375 -63.515625 C 20.347656 -63.148438 18.722656 -62.523438 17.109375 -61.640625 C 15.492188 -60.753906 14.125 -59.566406 13 -58.078125 C 11.875 -56.585938 11.3125 -54.75 11.3125 -52.5625 C 11.3125 -49.644531 12.207031 -47.046875 14 -44.765625 C 15.800781 -42.484375 18.066406 -40.550781 20.796875 -38.96875 C 23.535156 -37.382812 26.304688 -36.078125 29.109375 -35.046875 C 32.273438 -33.941406 35.238281 -32.535156 38 -30.828125 C 40.769531 -29.128906 43.019531 -27.0625 44.75 -24.625 C 46.488281 -22.195312 47.359375 -19.25 47.359375 -15.78125 C 47.359375 -12.4375 46.503906 -9.53125 44.796875 -7.0625 C 43.097656 -4.601562 40.863281 -2.6875 38.09375 -1.3125 C 35.320312 0.0507812 32.296875 0.734375 29.015625 0.734375 Z M 29.015625 0.734375 "/></g></g></g><g fill="#000000" fill-opacity="1"><g transform="translate(502.20928, 126.787486)"><g><path d="M 54.75 -64.0625 L 54.75 -56.296875 L 53.921875 -56.296875 C 52.160156 -58.242188 50.382812 -59.71875 48.59375 -60.71875 C 46.800781 -61.726562 44.625 -62.398438 42.0625 -62.734375 C 39.507812 -63.066406 36.132812 -63.234375 31.9375 -63.234375 L 31.9375 -7.84375 C 31.9375 -4.863281 32.222656 -2.945312 32.796875 -2.09375 C 33.378906 -1.25 33.789062 -0.828125 34.03125 -0.828125 L 34.03125 0 L 23.359375 0 L 23.359375 -0.828125 C 23.660156 -0.828125 24.082031 -1.25 24.625 -2.09375 C 25.175781 -2.945312 25.453125 -4.863281 25.453125 -7.84375 L 25.453125 -63.234375 C 21.316406 -63.234375 17.957031 -63.066406 15.375 -62.734375 C 12.789062 -62.398438 10.613281 -61.726562 8.84375 -60.71875 C 7.082031 -59.71875 5.320312 -58.242188 3.5625 -56.296875 L 2.734375 -56.296875 L 2.734375 -64.0625 Z M 54.75 -64.0625 "/></g></g></g><g fill="#000000" fill-opacity="1"><g transform="translate(559.696166, 126.787486)"><g><path d="M 28.828125 -35.3125 L 41.796875 -12.859375 C 43.796875 -9.453125 45.523438 -6.59375 46.984375 -4.28125 C 48.453125 -1.976562 49.519531 -0.828125 50.1875 -0.828125 L 50.1875 0 L 39.515625 0 L 39.515625 -0.828125 C 39.878906 -0.828125 39.722656 -1.769531 39.046875 -3.65625 C 38.378906 -5.539062 37.195312 -7.941406 35.5 -10.859375 L 21.625 -34.859375 L 11.3125 -34.859375 L 11.3125 -7.84375 C 11.3125 -4.863281 11.597656 -2.945312 12.171875 -2.09375 C 12.753906 -1.25 13.164062 -0.828125 13.40625 -0.828125 L 13.40625 0 L 2.734375 0 L 2.734375 -0.828125 C 3.035156 -0.828125 3.460938 -1.25 4.015625 -2.09375 C 4.566406 -2.945312 4.84375 -4.863281 4.84375 -7.84375 L 4.84375 -56.203125 C 4.84375 -59.242188 4.566406 -61.175781 4.015625 -62 C 3.460938 -62.820312 3.035156 -63.234375 2.734375 -63.234375 L 2.734375 -64.0625 L 3.5625 -64.0625 C 6.238281 -64.125 9.066406 -64.304688 12.046875 -64.609375 C 15.023438 -64.910156 17.820312 -65.0625 20.4375 -65.0625 C 26.644531 -65.0625 31.554688 -64.40625 35.171875 -63.09375 C 38.796875 -61.789062 41.382812 -60.015625 42.9375 -57.765625 C 44.488281 -55.515625 45.265625 -52.894531 45.265625 -49.90625 C 45.265625 -46.257812 44.03125 -43.128906 41.5625 -40.515625 C 39.101562 -37.898438 34.859375 -36.164062 28.828125 -35.3125 Z M 11.3125 -63.78125 L 11.3125 -35.59375 L 20.4375 -35.59375 C 22.445312 -35.59375 24.515625 -35.816406 26.640625 -36.265625 C 28.773438 -36.722656 30.769531 -37.484375 32.625 -38.546875 C 34.476562 -39.617188 35.984375 -41.082031 37.140625 -42.9375 C 38.296875 -44.789062 38.875 -47.113281 38.875 -49.90625 C 38.875 -52.769531 38.296875 -55.128906 37.140625 -56.984375 C 35.984375 -58.835938 34.476562 -60.296875 32.625 -61.359375 C 30.769531 -62.429688 28.773438 -63.191406 26.640625 -63.640625 C 24.515625 -64.097656 22.445312 -64.328125 20.4375 -64.328125 C 19.039062 -64.328125 17.566406 -64.265625 16.015625 -64.140625 C 14.460938 -64.023438 12.894531 -63.90625 11.3125 -63.78125 Z M 11.3125 -63.78125 "/></g></g></g><g fill="#000000" fill-opacity="1"><g transform="translate(605.776318, 126.787486)"><g><path d="M 3.921875 -23.71875 C 2.765625 -28.039062 2.488281 -32.316406 3.09375 -36.546875 C 3.707031 -40.773438 5.0625 -44.695312 7.15625 -48.3125 C 9.257812 -51.9375 11.984375 -55.070312 15.328125 -57.71875 C 18.671875 -60.363281 22.503906 -62.265625 26.828125 -63.421875 C 31.023438 -64.578125 35.160156 -64.878906 39.234375 -64.328125 C 43.304688 -63.785156 47.125 -62.554688 50.6875 -60.640625 C 54.25 -58.722656 57.335938 -56.210938 59.953125 -53.109375 L 57.765625 -45.078125 L 56.9375 -45.078125 C 55.539062 -47.929688 53.804688 -50.585938 51.734375 -53.046875 C 49.671875 -55.515625 47.359375 -57.628906 44.796875 -59.390625 C 42.242188 -61.160156 39.460938 -62.363281 36.453125 -63 C 33.441406 -63.644531 30.296875 -63.539062 27.015625 -62.6875 C 23.117188 -61.65625 19.863281 -59.785156 17.25 -57.078125 C 14.632812 -54.367188 12.671875 -51.21875 11.359375 -47.625 C 10.054688 -44.039062 9.34375 -40.332031 9.21875 -36.5 L 11.046875 -36.5 C 14.691406 -36.5 18.320312 -36.664062 21.9375 -37 C 25.5625 -37.332031 28.847656 -37.742188 31.796875 -38.234375 C 34.742188 -38.722656 37.113281 -39.132812 38.90625 -39.46875 C 40.707031 -39.800781 41.609375 -39.96875 41.609375 -39.96875 L 42.4375 -39.96875 L 42.4375 -32.21875 L 41.609375 -32.21875 C 41.609375 -32.21875 40.707031 -32.382812 38.90625 -32.71875 C 37.113281 -33.050781 34.742188 -33.457031 31.796875 -33.9375 C 28.847656 -34.425781 25.5625 -34.835938 21.9375 -35.171875 C 18.320312 -35.503906 14.691406 -35.671875 11.046875 -35.671875 L 9.125 -35.671875 C 9.125 -33.972656 9.226562 -32.253906 9.4375 -30.515625 C 9.65625 -28.785156 9.976562 -27.097656 10.40625 -25.453125 C 11.800781 -20.347656 13.910156 -16.09375 16.734375 -12.6875 C 19.566406 -9.28125 22.820312 -6.691406 26.5 -4.921875 C 30.1875 -3.160156 33.988281 -2.203125 37.90625 -2.046875 C 41.832031 -1.898438 45.5625 -2.554688 49.09375 -4.015625 C 52.625 -5.472656 55.648438 -7.707031 58.171875 -10.71875 C 60.691406 -13.726562 62.410156 -17.484375 63.328125 -21.984375 L 64.15625 -21.8125 C 63.300781 -17.550781 61.734375 -13.914062 59.453125 -10.90625 C 57.171875 -7.894531 54.398438 -5.488281 51.140625 -3.6875 C 47.890625 -1.894531 44.394531 -0.707031 40.65625 -0.125 C 36.914062 0.445312 33.144531 0.382812 29.34375 -0.3125 C 25.539062 -1.019531 21.929688 -2.34375 18.515625 -4.28125 C 15.109375 -6.226562 12.128906 -8.8125 9.578125 -12.03125 C 7.023438 -15.257812 5.140625 -19.15625 3.921875 -23.71875 Z M 3.921875 -23.71875 "/></g></g></g><g fill="#000000" fill-opacity="1"><g transform="translate(668.098998, 126.787486)"><g><path d="M 54.75 -64.0625 L 54.75 -56.296875 L 53.921875 -56.296875 C 52.160156 -58.242188 50.382812 -59.71875 48.59375 -60.71875 C 46.800781 -61.726562 44.625 -62.398438 42.0625 -62.734375 C 39.507812 -63.066406 36.132812 -63.234375 31.9375 -63.234375 L 31.9375 -7.84375 C 31.9375 -4.863281 32.222656 -2.945312 32.796875 -2.09375 C 33.378906 -1.25 33.789062 -0.828125 34.03125 -0.828125 L 34.03125 0 L 23.359375 0 L 23.359375 -0.828125 C 23.660156 -0.828125 24.082031 -1.25 24.625 -2.09375 C 25.175781 -2.945312 25.453125 -4.863281 25.453125 -7.84375 L 25.453125 -63.234375 C 21.316406 -63.234375 17.957031 -63.066406 15.375 -62.734375 C 12.789062 -62.398438 10.613281 -61.726562 8.84375 -60.71875 C 7.082031 -59.71875 5.320312 -58.242188 3.5625 -56.296875 L 2.734375 -56.296875 L 2.734375 -64.0625 Z M 54.75 -64.0625 "/></g></g></g><g fill="#000000" fill-opacity="1"><g transform="translate(718.741608, 126.787486)"><g><path d="M 3.921875 -23.8125 C 2.765625 -28.132812 2.488281 -32.410156 3.09375 -36.640625 C 3.707031 -40.867188 5.0625 -44.789062 7.15625 -48.40625 C 9.257812 -52.03125 11.984375 -55.164062 15.328125 -57.8125 C 18.671875 -60.457031 22.503906 -62.359375 26.828125 -63.515625 C 31.023438 -64.671875 35.144531 -64.972656 39.1875 -64.421875 C 43.238281 -63.867188 47.039062 -62.632812 50.59375 -60.71875 C 54.15625 -58.8125 57.242188 -56.304688 59.859375 -53.203125 L 57.765625 -45.171875 L 56.9375 -45.171875 C 55.539062 -48.023438 53.804688 -50.679688 51.734375 -53.140625 C 49.671875 -55.609375 47.34375 -57.722656 44.75 -59.484375 C 42.164062 -61.253906 39.382812 -62.457031 36.40625 -63.09375 C 33.425781 -63.738281 30.296875 -63.632812 27.015625 -62.78125 C 23.117188 -61.75 19.875 -59.910156 17.28125 -57.265625 C 14.695312 -54.617188 12.738281 -51.515625 11.40625 -47.953125 C 10.070312 -44.390625 9.328125 -40.660156 9.171875 -36.765625 C 9.015625 -32.878906 9.425781 -29.140625 10.40625 -25.546875 C 11.800781 -20.441406 13.910156 -16.1875 16.734375 -12.78125 C 19.566406 -9.375 22.820312 -6.785156 26.5 -5.015625 C 30.1875 -3.253906 33.988281 -2.296875 37.90625 -2.140625 C 41.832031 -1.992188 45.5625 -2.648438 49.09375 -4.109375 C 52.625 -5.566406 55.648438 -7.800781 58.171875 -10.8125 C 60.691406 -13.820312 62.410156 -17.578125 63.328125 -22.078125 L 64.0625 -21.90625 C 63.207031 -17.644531 61.640625 -14.007812 59.359375 -11 C 57.078125 -7.988281 54.320312 -5.582031 51.09375 -3.78125 C 47.875 -1.988281 44.394531 -0.800781 40.65625 -0.21875 C 36.914062 0.351562 33.144531 0.289062 29.34375 -0.40625 C 25.539062 -1.101562 21.929688 -2.425781 18.515625 -4.375 C 15.109375 -6.320312 12.128906 -8.90625 9.578125 -12.125 C 7.023438 -15.351562 5.140625 -19.25 3.921875 -23.8125 Z M 3.921875 -23.8125 "/></g></g></g><g fill="#000000" fill-opacity="1"><g transform="translate(783.254449, 126.787486)"><g><path d="M 49.90625 -64.0625 L 49.90625 -63.234375 C 49.664062 -63.234375 49.253906 -62.820312 48.671875 -62 C 48.097656 -61.175781 47.8125 -59.242188 47.8125 -56.203125 L 47.8125 -7.84375 C 47.8125 -4.863281 48.097656 -2.945312 48.671875 -2.09375 C 49.253906 -1.25 49.664062 -0.828125 49.90625 -0.828125 L 49.90625 0 L 39.140625 0 L 39.140625 -0.828125 C 39.453125 -0.828125 39.878906 -1.25 40.421875 -2.09375 C 40.972656 -2.945312 41.25 -4.863281 41.25 -7.84375 L 41.25 -37.59375 L 11.3125 -37.59375 L 11.3125 -7.84375 C 11.3125 -4.863281 11.597656 -2.945312 12.171875 -2.09375 C 12.753906 -1.25 13.164062 -0.828125 13.40625 -0.828125 L 13.40625 0 L 2.734375 0 L 2.734375 -0.828125 C 3.035156 -0.828125 3.460938 -1.25 4.015625 -2.09375 C 4.566406 -2.945312 4.84375 -4.863281 4.84375 -7.84375 L 4.84375 -56.203125 C 4.84375 -59.242188 4.566406 -61.175781 4.015625 -62 C 3.460938 -62.820312 3.035156 -63.234375 2.734375 -63.234375 L 2.734375 -64.0625 L 13.40625 -64.0625 L 13.40625 -63.234375 C 13.164062 -63.234375 12.753906 -62.820312 12.171875 -62 C 11.597656 -61.175781 11.3125 -59.242188 11.3125 -56.203125 L 11.3125 -38.421875 L 41.25 -38.421875 L 41.25 -56.203125 C 41.25 -59.242188 40.972656 -61.175781 40.421875 -62 C 39.878906 -62.820312 39.453125 -63.234375 39.140625 -63.234375 L 39.140625 -64.0625 Z M 49.90625 -64.0625 "/></g></g></g></g></g></g></g></g></g></mask><clipPath id="d6e238d31a"><path d="M 27.871094 0 L 841 0 L 841 225 L 27.871094 225 Z M 27.871094 0 " clip-rule="nonzero"/></clipPath><clipPath id="545ec1ca2c"><rect x="0" width="841" y="0" height="225"/></clipPath><clipPath id="4eb9d3f234"><rect x="0" width="841" y="0" height="225"/></clipPath><clipPath id="cff8964ce8"><rect x="0" width="844" y="0" height="225"/></clipPath><clipPath id="651110c8d0"><rect x="0" width="455" y="0" height="50"/></clipPath><clipPath id="55d6c41d62"><rect x="0" width="894" y="0" height="225"/></clipPath></defs><g transform="matrix(1, 0, 0, 1, 6, -0.000000000000008531)"><g clip-path="url(#55d6c41d62)"><path fill="#efb465" d="M 152.847656 193.414062 C 110.453125 171.917969 74.683594 171.242188 74.683594 171.242188 C 100.105469 176.230469 115.980469 186.953125 115.980469 186.953125 C 73.109375 171.222656 33.0625 183.148438 33.0625 183.148438 C 68.207031 211.039062 126.105469 209.382812 126.105469 209.382812 C 54.855469 223.066406 12.507812 180.558594 12.507812 180.558594 C 45.640625 221.628906 112.480469 216.570312 112.480469 216.570312 C 22.753906 234.636719 0 176.753906 0 176.753906 C 96.929688 136.160156 152.847656 193.414062 152.847656 193.414062 Z M 152.847656 193.414062 " fill-opacity="1" fill-rule="nonzero"/><g clip-path="url(#31c17796e4)"><path fill="#ef5e9c" d="M 106.460938 188.96875 C 148.859375 210.464844 184.625 211.140625 184.625 211.140625 C 159.203125 206.152344 143.328125 195.429688 143.328125 195.429688 C 186.199219 211.160156 226.246094 199.234375 226.246094 199.234375 C 191.101562 171.339844 133.203125 173 133.203125 173 C 204.457031 159.316406 246.800781 201.824219 246.800781 201.824219 C 213.667969 160.753906 146.828125 165.8125 146.828125 165.8125 C 236.554688 147.761719 259.308594 205.644531 259.308594 205.644531 C 162.382812 246.242188 106.460938 188.96875 106.460938 188.96875 Z M 106.460938 188.96875 " fill-opacity="1" fill-rule="nonzero"/></g><path fill="#36539b" d="M 166.183594 159.214844 L 194.058594 130.425781 L 174.621094 157.777344 C 219.027344 147.730469 221.511719 104.933594 221.511719 104.933594 C 161.925781 107.285156 151.597656 149.589844 151.597656 149.589844 L 199.503906 123.726562 L 146.964844 162.308594 C 146.964844 162.308594 125.496094 147.558594 149.855469 101.71875 C 174.214844 55.878906 131.277344 3.003906 131.277344 3.003906 C 195.664062 50.453125 160.742188 114.238281 160.742188 114.238281 C 195.988281 82.503906 240.511719 90.84375 240.511719 90.84375 C 228.121094 171.191406 166.183594 159.214844 166.183594 159.214844 Z M 166.183594 159.214844 " fill-opacity="1" fill-rule="nonzero"/><path fill="#64a1d8" d="M 109.453125 101.738281 C 133.796875 147.578125 112.34375 162.324219 112.34375 162.324219 L 59.808594 123.742188 L 107.714844 149.605469 C 107.714844 149.605469 97.382812 107.300781 37.796875 104.949219 C 37.796875 104.949219 40.28125 147.746094 84.691406 157.792969 L 65.25 130.441406 L 93.125 159.230469 C 93.125 159.230469 31.1875 171.207031 18.8125 90.84375 C 18.8125 90.84375 63.339844 82.503906 98.585938 114.238281 C 98.585938 114.238281 63.660156 50.453125 128.046875 3.003906 C 128.03125 3.003906 85.113281 55.898438 109.453125 101.738281 Z M 109.453125 101.738281 " fill-opacity="1" fill-rule="nonzero"/><path fill="#36539b" d="M 144.359375 83.367188 C 144.359375 84.332031 144.265625 85.289062 144.078125 86.238281 C 143.890625 87.1875 143.609375 88.105469 143.242188 89 C 142.871094 89.890625 142.417969 90.738281 141.882812 91.542969 C 141.347656 92.347656 140.738281 93.089844 140.054688 93.773438 C 139.371094 94.457031 138.628906 95.066406 137.824219 95.601562 C 137.023438 96.140625 136.175781 96.59375 135.28125 96.964844 C 134.390625 97.332031 133.472656 97.613281 132.523438 97.800781 C 131.578125 97.988281 130.621094 98.082031 129.65625 98.082031 C 128.6875 98.082031 127.734375 97.988281 126.785156 97.800781 C 125.839844 97.613281 124.917969 97.332031 124.027344 96.964844 C 123.132812 96.59375 122.285156 96.140625 121.484375 95.601562 C 120.679688 95.066406 119.9375 94.457031 119.253906 93.773438 C 118.574219 93.089844 117.964844 92.347656 117.425781 91.542969 C 116.890625 90.738281 116.4375 89.890625 116.066406 89 C 115.699219 88.105469 115.417969 87.1875 115.230469 86.238281 C 115.042969 85.289062 114.949219 84.332031 114.949219 83.367188 C 114.949219 82.402344 115.042969 81.445312 115.230469 80.496094 C 115.417969 79.550781 115.699219 78.628906 116.066406 77.734375 C 116.4375 76.84375 116.890625 75.996094 117.425781 75.191406 C 117.964844 74.386719 118.574219 73.644531 119.253906 72.960938 C 119.9375 72.277344 120.679688 71.667969 121.484375 71.132812 C 122.285156 70.59375 123.132812 70.140625 124.027344 69.773438 C 124.917969 69.402344 125.839844 69.121094 126.785156 68.933594 C 127.734375 68.746094 128.6875 68.652344 129.65625 68.652344 C 130.621094 68.652344 131.578125 68.746094 132.523438 68.933594 C 133.472656 69.121094 134.390625 69.402344 135.28125 69.773438 C 136.175781 70.140625 137.023438 70.59375 137.824219 71.132812 C 138.628906 71.667969 139.371094 72.277344 140.054688 72.960938 C 140.738281 73.644531 141.347656 74.386719 141.882812 75.191406 C 142.417969 75.996094 142.871094 76.84375 143.242188 77.734375 C 143.609375 78.628906 143.890625 79.550781 144.078125 80.496094 C 144.265625 81.445312 144.359375 82.402344 144.359375 83.367188 Z M 144.359375 83.367188 " fill-opacity="1" fill-rule="nonzero"/><path fill="#64a1d8" d="M 148.519531 83.367188 C 148.519531 84.367188 148.46875 85.363281 148.382812 86.328125 C 147.300781 73.4375 139.339844 63.441406 129.65625 63.441406 C 119.96875 63.441406 112.007812 73.457031 110.925781 86.328125 C 110.839844 85.347656 110.789062 84.367188 110.789062 83.367188 C 110.789062 69.089844 119.242188 57.503906 129.65625 57.503906 C 140.066406 57.503906 148.519531 69.074219 148.519531 83.367188 Z M 148.519531 83.367188 " fill-opacity="1" fill-rule="nonzero"/><g transform="matrix(1, 0, 0, 1, 50, -0.000000000000008531)"><g clip-path="url(#cff8964ce8)"><g clip-path="url(#5fe75133e9)"><g transform="matrix(1, 0, 0, 1, 3, -0.000000000000008531)"><g clip-path="url(#4eb9d3f234)"><g clip-path="url(#243ae6628e)"><g mask="url(#1e2a5f6121)"><g transform="matrix(1, 0, 0, 1, 0, -0.000000000000008531)"><g clip-path="url(#545ec1ca2c)"><g clip-path="url(#d6e238d31a)"><path fill="url(#eff6d48269)" d="M 27.871094 0 L 27.871094 225 L 841 225 L 841 0 Z M 27.871094 0 " fill-rule="nonzero"/></g></g></g></g></g></g></g></g></g></g><g transform="matrix(1, 0, 0, 1, 351, 170)"><g clip-path="url(#651110c8d0)"><g fill="#2c4b99" fill-opacity="1"><g transform="translate(1.034668, 39.038814)"><g><path d="M 14.125 -9.65625 L 14.125 0 L 11.21875 0 L 11.21875 -9.65625 L 0.046875 -27.9375 L 3.1875 -27.9375 L 12.78125 -12.25 L 22.359375 -27.9375 L 25.3125 -27.9375 Z M 14.125 -9.65625 "/></g></g></g><g fill="#2c4b99" fill-opacity="1"><g transform="translate(29.292295, 39.038814)"><g><path d="M 16.765625 0.234375 C 13.992188 0.234375 11.484375 -0.378906 9.234375 -1.609375 C 6.992188 -2.847656 5.238281 -4.546875 3.96875 -6.703125 C 2.707031 -8.859375 2.078125 -11.28125 2.078125 -13.96875 C 2.078125 -16.65625 2.707031 -19.078125 3.96875 -21.234375 C 5.238281 -23.390625 6.992188 -25.085938 9.234375 -26.328125 C 11.484375 -27.566406 13.992188 -28.1875 16.765625 -28.1875 C 19.535156 -28.1875 22.03125 -27.570312 24.25 -26.34375 C 26.46875 -25.125 28.21875 -23.425781 29.5 -21.25 C 30.78125 -19.082031 31.421875 -16.65625 31.421875 -13.96875 C 31.421875 -11.28125 30.78125 -8.851562 29.5 -6.6875 C 28.21875 -4.519531 26.46875 -2.820312 24.25 -1.59375 C 22.03125 -0.375 19.535156 0.234375 16.765625 0.234375 Z M 16.765625 -2.390625 C 18.972656 -2.390625 20.96875 -2.890625 22.75 -3.890625 C 24.539062 -4.890625 25.941406 -6.273438 26.953125 -8.046875 C 27.960938 -9.816406 28.46875 -11.789062 28.46875 -13.96875 C 28.46875 -16.15625 27.960938 -18.132812 26.953125 -19.90625 C 25.941406 -21.675781 24.539062 -23.054688 22.75 -24.046875 C 20.96875 -25.046875 18.972656 -25.546875 16.765625 -25.546875 C 14.554688 -25.546875 12.550781 -25.046875 10.75 -24.046875 C 8.957031 -23.054688 7.546875 -21.675781 6.515625 -19.90625 C 5.492188 -18.132812 4.984375 -16.15625 4.984375 -13.96875 C 4.984375 -11.789062 5.492188 -9.816406 6.515625 -8.046875 C 7.546875 -6.273438 8.957031 -4.890625 10.75 -3.890625 C 12.550781 -2.890625 14.554688 -2.390625 16.765625 -2.390625 Z M 16.765625 -2.390625 "/></g></g></g><g fill="#2c4b99" fill-opacity="1"><g transform="translate(66.888867, 39.038814)"><g><path d="M 24.234375 -13.96875 L 27.0625 -13.96875 L 27.0625 -3.3125 C 25.757812 -2.164062 24.21875 -1.285156 22.4375 -0.671875 C 20.65625 -0.0664062 18.78125 0.234375 16.8125 0.234375 C 14.007812 0.234375 11.488281 -0.375 9.25 -1.59375 C 7.019531 -2.820312 5.265625 -4.519531 3.984375 -6.6875 C 2.710938 -8.851562 2.078125 -11.28125 2.078125 -13.96875 C 2.078125 -16.65625 2.710938 -19.082031 3.984375 -21.25 C 5.265625 -23.425781 7.019531 -25.125 9.25 -26.34375 C 11.488281 -27.570312 14.019531 -28.1875 16.84375 -28.1875 C 18.976562 -28.1875 20.9375 -27.847656 22.71875 -27.171875 C 24.5 -26.492188 26.003906 -25.488281 27.234375 -24.15625 L 25.390625 -22.28125 C 23.179688 -24.457031 20.375 -25.546875 16.96875 -25.546875 C 14.707031 -25.546875 12.664062 -25.046875 10.84375 -24.046875 C 9.019531 -23.054688 7.585938 -21.675781 6.546875 -19.90625 C 5.503906 -18.132812 4.984375 -16.15625 4.984375 -13.96875 C 4.984375 -11.789062 5.503906 -9.820312 6.546875 -8.0625 C 7.585938 -6.300781 9.007812 -4.914062 10.8125 -3.90625 C 12.625 -2.894531 14.660156 -2.390625 16.921875 -2.390625 C 19.796875 -2.390625 22.234375 -3.109375 24.234375 -4.546875 Z M 24.234375 -13.96875 "/></g></g></g><g fill="#2c4b99" fill-opacity="1"><g transform="translate(101.851423, 39.038814)"><g><path d="M 22.078125 -7.46875 L 6.5 -7.46875 L 3.15625 0 L 0.078125 0 L 12.859375 -27.9375 L 15.765625 -27.9375 L 28.546875 0 L 25.4375 0 Z M 21 -9.859375 L 14.296875 -24.875 L 7.578125 -9.859375 Z M 21 -9.859375 "/></g></g></g><g fill="#2c4b99" fill-opacity="1"><g transform="translate(134.579101, 39.038814)"><g/></g></g><g fill="#2c4b99" fill-opacity="1"><g transform="translate(149.148179, 39.038814)"><g><path d="M 24.546875 0.4375 L 20.671875 -3.546875 C 18.304688 -1.023438 15.195312 0.234375 11.34375 0.234375 C 9.53125 0.234375 7.910156 -0.0625 6.484375 -0.65625 C 5.054688 -1.257812 3.941406 -2.097656 3.140625 -3.171875 C 2.347656 -4.253906 1.953125 -5.484375 1.953125 -6.859375 C 1.953125 -8.535156 2.484375 -10.039062 3.546875 -11.375 C 4.617188 -12.707031 6.429688 -14.101562 8.984375 -15.5625 C 7.648438 -16.945312 6.726562 -18.125 6.21875 -19.09375 C 5.71875 -20.070312 5.46875 -21.109375 5.46875 -22.203125 C 5.46875 -23.984375 6.101562 -25.414062 7.375 -26.5 C 8.65625 -27.59375 10.375 -28.140625 12.53125 -28.140625 C 14.53125 -28.140625 16.113281 -27.644531 17.28125 -26.65625 C 18.457031 -25.675781 19.046875 -24.320312 19.046875 -22.59375 C 19.046875 -21.207031 18.578125 -19.960938 17.640625 -18.859375 C 16.710938 -17.753906 15.101562 -16.535156 12.8125 -15.203125 L 20.484375 -7.3125 C 21.328125 -8.820312 21.953125 -10.613281 22.359375 -12.6875 L 24.671875 -11.96875 C 24.160156 -9.46875 23.335938 -7.328125 22.203125 -5.546875 L 26.1875 -1.4375 Z M 12.53125 -26.03125 C 11.144531 -26.03125 10.0625 -25.679688 9.28125 -24.984375 C 8.5 -24.296875 8.109375 -23.378906 8.109375 -22.234375 C 8.109375 -21.410156 8.316406 -20.625 8.734375 -19.875 C 9.160156 -19.132812 10.003906 -18.125 11.265625 -16.84375 C 13.285156 -18.019531 14.679688 -19.019531 15.453125 -19.84375 C 16.222656 -20.664062 16.609375 -21.570312 16.609375 -22.5625 C 16.609375 -23.625 16.25 -24.46875 15.53125 -25.09375 C 14.8125 -25.71875 13.8125 -26.03125 12.53125 -26.03125 Z M 11.5 -2.109375 C 14.582031 -2.109375 17.082031 -3.160156 19 -5.265625 L 10.578125 -13.9375 C 8.367188 -12.6875 6.84375 -11.550781 6 -10.53125 C 5.164062 -9.519531 4.75 -8.390625 4.75 -7.140625 C 4.75 -5.628906 5.367188 -4.410156 6.609375 -3.484375 C 7.847656 -2.566406 9.476562 -2.109375 11.5 -2.109375 Z M 11.5 -2.109375 "/></g></g></g><g fill="#2c4b99" fill-opacity="1"><g transform="translate(179.960209, 39.038814)"><g/></g></g><g fill="#2c4b99" fill-opacity="1"><g transform="translate(194.529288, 39.038814)"><g><path d="M 42.921875 -27.9375 L 33.5 0 L 30.375 0 L 22.203125 -23.828125 L 13.96875 0 L 10.90625 0 L 1.484375 -27.9375 L 4.515625 -27.9375 L 12.578125 -3.90625 L 20.921875 -27.9375 L 23.671875 -27.9375 L 31.890625 -3.796875 L 40.078125 -27.9375 Z M 42.921875 -27.9375 "/></g></g></g><g fill="#2c4b99" fill-opacity="1"><g transform="translate(242.382315, 39.038814)"><g><path d="M 24.3125 -2.5625 L 24.3125 0 L 4.546875 0 L 4.546875 -27.9375 L 23.71875 -27.9375 L 23.71875 -25.390625 L 7.5 -25.390625 L 7.5 -15.453125 L 21.953125 -15.453125 L 21.953125 -12.9375 L 7.5 -12.9375 L 7.5 -2.5625 Z M 24.3125 -2.5625 "/></g></g></g><g fill="#2c4b99" fill-opacity="1"><g transform="translate(273.194346, 39.038814)"><g><path d="M 4.546875 -27.9375 L 7.5 -27.9375 L 7.5 -2.5625 L 23.15625 -2.5625 L 23.15625 0 L 4.546875 0 Z M 4.546875 -27.9375 "/></g></g></g><g fill="#2c4b99" fill-opacity="1"><g transform="translate(300.813674, 39.038814)"><g><path d="M 4.546875 -27.9375 L 7.5 -27.9375 L 7.5 -2.5625 L 23.15625 -2.5625 L 23.15625 0 L 4.546875 0 Z M 4.546875 -27.9375 "/></g></g></g><g fill="#2c4b99" fill-opacity="1"><g transform="translate(328.433002, 39.038814)"><g><path d="M 27.90625 -27.9375 L 27.90625 0 L 25.46875 0 L 7.5 -22.671875 L 7.5 0 L 4.546875 0 L 4.546875 -27.9375 L 6.984375 -27.9375 L 24.984375 -5.265625 L 24.984375 -27.9375 Z M 27.90625 -27.9375 "/></g></g></g><g fill="#2c4b99" fill-opacity="1"><g transform="translate(364.991942, 39.038814)"><g><path d="M 24.3125 -2.5625 L 24.3125 0 L 4.546875 0 L 4.546875 -27.9375 L 23.71875 -27.9375 L 23.71875 -25.390625 L 7.5 -25.390625 L 7.5 -15.453125 L 21.953125 -15.453125 L 21.953125 -12.9375 L 7.5 -12.9375 L 7.5 -2.5625 Z M 24.3125 -2.5625 "/></g></g></g><g fill="#2c4b99" fill-opacity="1"><g transform="translate(395.803972, 39.038814)"><g><path d="M 12.25 0.234375 C 10.175781 0.234375 8.1875 -0.09375 6.28125 -0.75 C 4.382812 -1.414062 2.914062 -2.296875 1.875 -3.390625 L 3.03125 -5.671875 C 4.039062 -4.660156 5.382812 -3.84375 7.0625 -3.21875 C 8.738281 -2.59375 10.46875 -2.28125 12.25 -2.28125 C 14.757812 -2.28125 16.640625 -2.738281 17.890625 -3.65625 C 19.140625 -4.570312 19.765625 -5.757812 19.765625 -7.21875 C 19.765625 -8.34375 19.421875 -9.238281 18.734375 -9.90625 C 18.054688 -10.570312 17.222656 -11.082031 16.234375 -11.4375 C 15.253906 -11.789062 13.890625 -12.179688 12.140625 -12.609375 C 10.035156 -13.140625 8.359375 -13.648438 7.109375 -14.140625 C 5.859375 -14.640625 4.785156 -15.394531 3.890625 -16.40625 C 3.003906 -17.414062 2.5625 -18.785156 2.5625 -20.515625 C 2.5625 -21.929688 2.929688 -23.21875 3.671875 -24.375 C 4.421875 -25.53125 5.566406 -26.453125 7.109375 -27.140625 C 8.648438 -27.835938 10.566406 -28.1875 12.859375 -28.1875 C 14.453125 -28.1875 16.015625 -27.96875 17.546875 -27.53125 C 19.078125 -27.09375 20.398438 -26.484375 21.515625 -25.703125 L 20.515625 -23.359375 C 19.347656 -24.128906 18.097656 -24.707031 16.765625 -25.09375 C 15.429688 -25.476562 14.128906 -25.671875 12.859375 -25.671875 C 10.410156 -25.671875 8.566406 -25.195312 7.328125 -24.25 C 6.085938 -23.300781 5.46875 -22.082031 5.46875 -20.59375 C 5.46875 -19.476562 5.804688 -18.582031 6.484375 -17.90625 C 7.160156 -17.226562 8.007812 -16.707031 9.03125 -16.34375 C 10.0625 -15.988281 11.441406 -15.597656 13.171875 -15.171875 C 15.222656 -14.660156 16.878906 -14.160156 18.140625 -13.671875 C 19.410156 -13.179688 20.484375 -12.4375 21.359375 -11.4375 C 22.234375 -10.4375 22.671875 -9.085938 22.671875 -7.390625 C 22.671875 -5.972656 22.289062 -4.6875 21.53125 -3.53125 C 20.78125 -2.375 19.617188 -1.457031 18.046875 -0.78125 C 16.472656 -0.101562 14.539062 0.234375 12.25 0.234375 Z M 12.25 0.234375 "/></g></g></g><g fill="#2c4b99" fill-opacity="1"><g transform="translate(424.460932, 39.038814)"><g><path d="M 12.25 0.234375 C 10.175781 0.234375 8.1875 -0.09375 6.28125 -0.75 C 4.382812 -1.414062 2.914062 -2.296875 1.875 -3.390625 L 3.03125 -5.671875 C 4.039062 -4.660156 5.382812 -3.84375 7.0625 -3.21875 C 8.738281 -2.59375 10.46875 -2.28125 12.25 -2.28125 C 14.757812 -2.28125 16.640625 -2.738281 17.890625 -3.65625 C 19.140625 -4.570312 19.765625 -5.757812 19.765625 -7.21875 C 19.765625 -8.34375 19.421875 -9.238281 18.734375 -9.90625 C 18.054688 -10.570312 17.222656 -11.082031 16.234375 -11.4375 C 15.253906 -11.789062 13.890625 -12.179688 12.140625 -12.609375 C 10.035156 -13.140625 8.359375 -13.648438 7.109375 -14.140625 C 5.859375 -14.640625 4.785156 -15.394531 3.890625 -16.40625 C 3.003906 -17.414062 2.5625 -18.785156 2.5625 -20.515625 C 2.5625 -21.929688 2.929688 -23.21875 3.671875 -24.375 C 4.421875 -25.53125 5.566406 -26.453125 7.109375 -27.140625 C 8.648438 -27.835938 10.566406 -28.1875 12.859375 -28.1875 C 14.453125 -28.1875 16.015625 -27.96875 17.546875 -27.53125 C 19.078125 -27.09375 20.398438 -26.484375 21.515625 -25.703125 L 20.515625 -23.359375 C 19.347656 -24.128906 18.097656 -24.707031 16.765625 -25.09375 C 15.429688 -25.476562 14.128906 -25.671875 12.859375 -25.671875 C 10.410156 -25.671875 8.566406 -25.195312 7.328125 -24.25 C 6.085938 -23.300781 5.46875 -22.082031 5.46875 -20.59375 C 5.46875 -19.476562 5.804688 -18.582031 6.484375 -17.90625 C 7.160156 -17.226562 8.007812 -16.707031 9.03125 -16.34375 C 10.0625 -15.988281 11.441406 -15.597656 13.171875 -15.171875 C 15.222656 -14.660156 16.878906 -14.160156 18.140625 -13.671875 C 19.410156 -13.179688 20.484375 -12.4375 21.359375 -11.4375 C 22.234375 -10.4375 22.671875 -9.085938 22.671875 -7.390625 C 22.671875 -5.972656 22.289062 -4.6875 21.53125 -3.53125 C 20.78125 -2.375 19.617188 -1.457031 18.046875 -0.78125 C 16.472656 -0.101562 14.539062 0.234375 12.25 0.234375 Z M 12.25 0.234375 "/></g></g></g></g></g></g></g></svg>