<svg xmlns="http://www.w3.org/2000/svg" xmlns:xlink="http://www.w3.org/1999/xlink" width="1200" zoomAndPan="magnify" viewBox="0 0 900 225" height="300" preserveAspectRatio="xMidYMid meet" version="1.0"><defs><g/><clipPath id="f00486926c"><path d="M 112 162 L 265.5 162 L 265.5 220 L 112 220 Z M 112 162 " clip-rule="nonzero"/></clipPath><clipPath id="2569198ed4"><rect x="0" width="628" y="0" height="93"/></clipPath><clipPath id="9a13ed441c"><rect x="0" width="455" y="0" height="50"/></clipPath></defs><path fill="#efb465" d="M 158.960938 193.21875 C 116.53125 171.742188 80.738281 171.066406 80.738281 171.066406 C 106.179688 176.050781 122.066406 186.765625 122.066406 186.765625 C 79.164062 171.050781 39.089844 182.964844 39.089844 182.964844 C 74.257812 210.828125 132.199219 209.171875 132.199219 209.171875 C 60.894531 222.839844 18.519531 180.378906 18.519531 180.378906 C 51.675781 221.402344 118.5625 216.351562 118.5625 216.351562 C 28.769531 234.398438 6 176.578125 6 176.578125 C 103 136.023438 158.960938 193.21875 158.960938 193.21875 Z M 158.960938 193.21875 " fill-opacity="1" fill-rule="nonzero"/><g clip-path="url(#f00486926c)"><path fill="#ef5e9c" d="M 112.539062 188.777344 C 154.96875 210.253906 190.761719 210.929688 190.761719 210.929688 C 165.320312 205.941406 149.433594 195.230469 149.433594 195.230469 C 192.335938 210.945312 232.410156 199.03125 232.410156 199.03125 C 197.242188 171.167969 139.300781 172.824219 139.300781 172.824219 C 210.605469 159.15625 252.980469 201.617188 252.980469 201.617188 C 219.824219 160.59375 152.9375 165.644531 152.9375 165.644531 C 242.730469 147.613281 265.5 205.4375 265.5 205.4375 C 168.5 245.988281 112.539062 188.777344 112.539062 188.777344 Z M 112.539062 188.777344 " fill-opacity="1" fill-rule="nonzero"/></g><path fill="#36539b" d="M 172.308594 159.054688 L 200.203125 130.296875 L 180.746094 157.617188 C 225.1875 147.582031 227.675781 104.832031 227.675781 104.832031 C 168.042969 107.179688 157.707031 149.441406 157.707031 149.441406 L 205.648438 123.605469 L 153.074219 162.144531 C 153.074219 162.144531 131.589844 147.414062 155.964844 101.621094 C 180.34375 55.832031 137.375 3.011719 137.375 3.011719 C 201.808594 50.40625 166.859375 114.125 166.859375 114.125 C 202.128906 82.425781 246.6875 90.757812 246.6875 90.757812 C 234.289062 171.015625 172.308594 159.054688 172.308594 159.054688 Z M 172.308594 159.054688 " fill-opacity="1" fill-rule="nonzero"/><path fill="#64a1d8" d="M 115.535156 101.636719 C 139.894531 147.429688 118.425781 162.164062 118.425781 162.164062 L 65.851562 123.621094 L 113.792969 149.457031 C 113.792969 149.457031 103.457031 107.199219 43.824219 104.847656 C 43.824219 104.847656 46.3125 147.597656 90.75 157.636719 L 71.296875 130.3125 L 99.191406 159.070312 C 99.191406 159.070312 37.210938 171.035156 24.828125 90.757812 C 24.828125 90.757812 69.386719 82.425781 104.65625 114.125 C 104.65625 114.125 69.707031 50.40625 134.144531 3.011719 C 134.125 3.011719 91.175781 55.847656 115.535156 101.636719 Z M 115.535156 101.636719 " fill-opacity="1" fill-rule="nonzero"/><path fill="#36539b" d="M 150.46875 83.289062 C 150.46875 84.253906 150.375 85.210938 150.183594 86.15625 C 149.996094 87.101562 149.71875 88.023438 149.347656 88.914062 C 148.976562 89.804688 148.523438 90.652344 147.988281 91.457031 C 147.449219 92.257812 146.839844 93 146.15625 93.683594 C 145.472656 94.367188 144.730469 94.976562 143.925781 95.511719 C 143.121094 96.046875 142.273438 96.5 141.382812 96.871094 C 140.488281 97.238281 139.570312 97.519531 138.621094 97.707031 C 137.671875 97.894531 136.714844 97.988281 135.75 97.988281 C 134.785156 97.988281 133.828125 97.894531 132.878906 97.707031 C 131.929688 97.519531 131.011719 97.238281 130.117188 96.871094 C 129.226562 96.5 128.375 96.046875 127.574219 95.511719 C 126.769531 94.976562 126.027344 94.367188 125.34375 93.683594 C 124.660156 93 124.050781 92.257812 123.511719 91.457031 C 122.976562 90.652344 122.523438 89.804688 122.152344 88.914062 C 121.78125 88.023438 121.503906 87.101562 121.316406 86.15625 C 121.125 85.210938 121.03125 84.253906 121.03125 83.289062 C 121.03125 82.324219 121.125 81.367188 121.316406 80.421875 C 121.503906 79.472656 121.78125 78.554688 122.152344 77.664062 C 122.523438 76.769531 122.976562 75.921875 123.511719 75.121094 C 124.050781 74.320312 124.660156 73.574219 125.34375 72.894531 C 126.027344 72.210938 126.769531 71.601562 127.574219 71.066406 C 128.375 70.527344 129.226562 70.078125 130.117188 69.707031 C 131.011719 69.335938 131.929688 69.058594 132.878906 68.871094 C 133.828125 68.683594 134.785156 68.589844 135.75 68.589844 C 136.714844 68.589844 137.671875 68.683594 138.621094 68.871094 C 139.570312 69.058594 140.488281 69.335938 141.382812 69.707031 C 142.273438 70.078125 143.121094 70.527344 143.925781 71.066406 C 144.730469 71.601562 145.472656 72.210938 146.15625 72.894531 C 146.839844 73.574219 147.449219 74.320312 147.988281 75.121094 C 148.523438 75.921875 148.976562 76.769531 149.347656 77.664062 C 149.71875 78.554688 149.996094 79.472656 150.183594 80.421875 C 150.375 81.367188 150.46875 82.324219 150.46875 83.289062 Z M 150.46875 83.289062 " fill-opacity="1" fill-rule="nonzero"/><path fill="#64a1d8" d="M 154.628906 83.289062 C 154.628906 84.285156 154.578125 85.28125 154.492188 86.246094 C 153.410156 73.371094 145.441406 63.382812 135.75 63.382812 C 126.058594 63.382812 118.089844 73.386719 117.007812 86.246094 C 116.921875 85.265625 116.871094 84.285156 116.871094 83.289062 C 116.871094 69.027344 125.328125 57.453125 135.75 57.453125 C 146.171875 57.453125 154.628906 69.011719 154.628906 83.289062 Z M 154.628906 83.289062 " fill-opacity="1" fill-rule="nonzero"/><g transform="matrix(1, 0, 0, 1, 268, 58)"><g clip-path="url(#2569198ed4)"><g fill="#2c4b99" fill-opacity="1"><g transform="translate(1.121251, 68.787488)"><g><path d="M 29.015625 0.734375 C 24.878906 0.734375 21.046875 -0.0390625 17.515625 -1.59375 C 13.992188 -3.144531 10.953125 -5.046875 8.390625 -7.296875 C 5.835938 -9.546875 3.953125 -11.707031 2.734375 -13.78125 L 4.921875 -21.90625 L 5.65625 -21.90625 C 5.65625 -21.90625 6.019531 -21.171875 6.75 -19.703125 C 7.476562 -18.242188 8.523438 -16.421875 9.890625 -14.234375 C 11.265625 -12.046875 12.910156 -9.851562 14.828125 -7.65625 C 16.742188 -5.46875 18.882812 -3.644531 21.25 -2.1875 C 23.625 -0.726562 26.210938 0 29.015625 0 C 30.046875 0 31.351562 -0.179688 32.9375 -0.546875 C 34.519531 -0.910156 36.128906 -1.53125 37.765625 -2.40625 C 39.410156 -3.289062 40.78125 -4.476562 41.875 -5.96875 C 42.976562 -7.46875 43.53125 -9.3125 43.53125 -11.5 C 43.53125 -14.476562 42.628906 -17.09375 40.828125 -19.34375 C 39.035156 -21.59375 36.785156 -23.539062 34.078125 -25.1875 C 31.367188 -26.832031 28.617188 -28.140625 25.828125 -29.109375 C 22.660156 -30.265625 19.691406 -31.675781 16.921875 -33.34375 C 14.160156 -35.019531 11.910156 -37.085938 10.171875 -39.546875 C 8.441406 -42.015625 7.578125 -44.953125 7.578125 -48.359375 C 7.578125 -51.703125 8.410156 -54.601562 10.078125 -57.0625 C 11.753906 -59.53125 13.988281 -61.445312 16.78125 -62.8125 C 19.582031 -64.1875 22.628906 -64.875 25.921875 -64.875 C 30.054688 -64.875 33.472656 -64.328125 36.171875 -63.234375 C 38.878906 -62.140625 41.113281 -60.691406 42.875 -58.890625 C 44.644531 -57.097656 46.109375 -55.140625 47.265625 -53.015625 L 45.078125 -44.984375 L 44.25 -44.984375 C 44.25 -44.984375 44.050781 -45.617188 43.65625 -46.890625 C 43.257812 -48.171875 42.632812 -49.769531 41.78125 -51.6875 C 40.9375 -53.601562 39.796875 -55.503906 38.359375 -57.390625 C 36.929688 -59.273438 35.195312 -60.859375 33.15625 -62.140625 C 31.125 -63.421875 28.710938 -64.0625 25.921875 -64.0625 C 24.941406 -64.0625 23.628906 -63.878906 21.984375 -63.515625 C 20.347656 -63.148438 18.722656 -62.523438 17.109375 -61.640625 C 15.492188 -60.753906 14.125 -59.566406 13 -58.078125 C 11.875 -56.585938 11.3125 -54.75 11.3125 -52.5625 C 11.3125 -49.644531 12.207031 -47.046875 14 -44.765625 C 15.800781 -42.484375 18.066406 -40.550781 20.796875 -38.96875 C 23.535156 -37.382812 26.304688 -36.078125 29.109375 -35.046875 C 32.273438 -33.941406 35.238281 -32.535156 38 -30.828125 C 40.769531 -29.128906 43.019531 -27.0625 44.75 -24.625 C 46.488281 -22.195312 47.359375 -19.25 47.359375 -15.78125 C 47.359375 -12.4375 46.503906 -9.53125 44.796875 -7.0625 C 43.097656 -4.601562 40.863281 -2.6875 38.09375 -1.3125 C 35.320312 0.0507812 32.296875 0.734375 29.015625 0.734375 Z M 29.015625 0.734375 "/></g></g></g><g fill="#2c4b99" fill-opacity="1"><g transform="translate(49.848121, 68.787488)"><g><path d="M 3.828125 -23.71875 C 2.671875 -28.039062 2.394531 -32.316406 3 -36.546875 C 3.613281 -40.773438 4.96875 -44.710938 7.0625 -48.359375 C 9.164062 -52.015625 11.890625 -55.148438 15.234375 -57.765625 C 18.578125 -60.378906 22.410156 -62.265625 26.734375 -63.421875 C 31.054688 -64.578125 35.332031 -64.847656 39.5625 -64.234375 C 43.789062 -63.628906 47.726562 -62.273438 51.375 -60.171875 C 55.019531 -58.078125 58.148438 -55.359375 60.765625 -52.015625 C 63.390625 -48.671875 65.28125 -44.835938 66.4375 -40.515625 C 67.582031 -36.191406 67.851562 -31.929688 67.25 -27.734375 C 66.644531 -23.535156 65.289062 -19.613281 63.1875 -15.96875 C 61.09375 -12.320312 58.367188 -9.175781 55.015625 -6.53125 C 51.671875 -3.882812 47.84375 -1.984375 43.53125 -0.828125 C 39.207031 0.328125 34.945312 0.601562 30.75 0 C 26.550781 -0.601562 22.625 -1.953125 18.96875 -4.046875 C 15.320312 -6.148438 12.175781 -8.875 9.53125 -12.21875 C 6.882812 -15.570312 4.984375 -19.40625 3.828125 -23.71875 Z M 59.953125 -38.78125 C 59.035156 -42.375 57.539062 -45.8125 55.46875 -49.09375 C 53.40625 -52.375 50.898438 -55.226562 47.953125 -57.65625 C 45.003906 -60.09375 41.765625 -61.796875 38.234375 -62.765625 C 34.703125 -63.742188 30.960938 -63.71875 27.015625 -62.6875 C 23.054688 -61.65625 19.785156 -59.816406 17.203125 -57.171875 C 14.617188 -54.523438 12.65625 -51.421875 11.3125 -47.859375 C 9.976562 -44.296875 9.25 -40.566406 9.125 -36.671875 C 9 -32.785156 9.394531 -29.046875 10.3125 -25.453125 C 11.28125 -21.929688 12.796875 -18.523438 14.859375 -15.234375 C 16.929688 -11.953125 19.425781 -9.09375 22.34375 -6.65625 C 25.269531 -4.226562 28.523438 -2.507812 32.109375 -1.5 C 35.703125 -0.5 39.445312 -0.546875 43.34375 -1.640625 C 47.300781 -2.671875 50.554688 -4.507812 53.109375 -7.15625 C 55.660156 -9.800781 57.601562 -12.90625 58.9375 -16.46875 C 60.28125 -20.03125 61.023438 -23.753906 61.171875 -27.640625 C 61.328125 -31.535156 60.921875 -35.25 59.953125 -38.78125 Z M 59.953125 -38.78125 "/></g></g></g><g fill="#2c4b99" fill-opacity="1"><g transform="translate(120.201134, 68.787488)"><g><path d="M 4.84375 -24.09375 L 4.84375 -56.203125 C 4.84375 -59.242188 4.566406 -61.175781 4.015625 -62 C 3.460938 -62.820312 3.035156 -63.234375 2.734375 -63.234375 L 2.734375 -64.0625 L 13.40625 -64.0625 L 13.40625 -63.234375 C 13.164062 -63.234375 12.753906 -62.820312 12.171875 -62 C 11.597656 -61.175781 11.3125 -59.242188 11.3125 -56.203125 L 11.3125 -24.09375 C 11.3125 -24.09375 11.3125 -23.53125 11.3125 -22.40625 C 11.3125 -21.28125 11.429688 -19.816406 11.671875 -18.015625 C 11.921875 -16.222656 12.363281 -14.320312 13 -12.3125 C 13.644531 -10.3125 14.585938 -8.410156 15.828125 -6.609375 C 17.078125 -4.816406 18.734375 -3.359375 20.796875 -2.234375 C 22.867188 -1.109375 25.457031 -0.546875 28.5625 -0.546875 C 30.8125 -0.546875 33.195312 -0.863281 35.71875 -1.5 C 38.25 -2.144531 40.640625 -3.285156 42.890625 -4.921875 C 45.140625 -6.566406 46.960938 -8.941406 48.359375 -12.046875 C 49.765625 -15.148438 50.46875 -19.164062 50.46875 -24.09375 L 50.46875 -49.1875 C 50.46875 -53.445312 50.054688 -56.851562 49.234375 -59.40625 C 48.410156 -61.957031 47.664062 -63.234375 47 -63.234375 L 47 -64.0625 L 54.75 -64.0625 L 54.75 -63.234375 C 54.082031 -63.234375 53.335938 -61.957031 52.515625 -59.40625 C 51.691406 -56.851562 51.28125 -53.445312 51.28125 -49.1875 L 51.28125 -24.09375 C 51.28125 -19.53125 50.703125 -15.742188 49.546875 -12.734375 C 48.390625 -9.722656 46.882812 -7.316406 45.03125 -5.515625 C 43.175781 -3.722656 41.226562 -2.398438 39.1875 -1.546875 C 37.15625 -0.703125 35.238281 -0.144531 33.4375 0.125 C 31.644531 0.40625 30.234375 0.546875 29.203125 0.546875 C 28.171875 0.546875 26.664062 0.394531 24.6875 0.09375 C 22.707031 -0.207031 20.59375 -0.828125 18.34375 -1.765625 C 16.09375 -2.710938 13.929688 -4.082031 11.859375 -5.875 C 9.796875 -7.675781 8.109375 -10.050781 6.796875 -13 C 5.492188 -15.945312 4.84375 -19.644531 4.84375 -24.09375 Z M 4.84375 -24.09375 "/></g></g></g><g fill="#2c4b99" fill-opacity="1"><g transform="translate(177.688025, 68.787488)"><g><path d="M 13.5 -63.96875 L 13.5 -63.140625 C 13.257812 -63.140625 12.847656 -62.726562 12.265625 -61.90625 C 11.691406 -61.09375 11.40625 -59.164062 11.40625 -56.125 L 11.40625 -0.828125 L 21.71875 -0.828125 C 26.28125 -1.304688 30.019531 -2.140625 32.9375 -3.328125 C 35.863281 -4.515625 38.722656 -5.960938 41.515625 -7.671875 L 42.34375 -7.671875 L 42.34375 0.09375 L 34.5 0.09375 L 32.125 0 L 2.734375 0 L 2.734375 -0.828125 C 3.035156 -0.828125 3.460938 -1.25 4.015625 -2.09375 C 4.566406 -2.945312 4.84375 -4.863281 4.84375 -7.84375 L 4.84375 -56.125 C 4.84375 -59.164062 4.566406 -61.09375 4.015625 -61.90625 C 3.460938 -62.726562 3.035156 -63.140625 2.734375 -63.140625 L 2.734375 -63.96875 Z M 13.5 -63.96875 "/></g></g></g><g fill="#2c4b99" fill-opacity="1"><g transform="translate(222.765053, 68.787488)"><g/></g></g><g fill="#2c4b99" fill-opacity="1"><g transform="translate(243.113586, 68.787488)"><g><path d="M 29.015625 0.734375 C 24.878906 0.734375 21.046875 -0.0390625 17.515625 -1.59375 C 13.992188 -3.144531 10.953125 -5.046875 8.390625 -7.296875 C 5.835938 -9.546875 3.953125 -11.707031 2.734375 -13.78125 L 4.921875 -21.90625 L 5.65625 -21.90625 C 5.65625 -21.90625 6.019531 -21.171875 6.75 -19.703125 C 7.476562 -18.242188 8.523438 -16.421875 9.890625 -14.234375 C 11.265625 -12.046875 12.910156 -9.851562 14.828125 -7.65625 C 16.742188 -5.46875 18.882812 -3.644531 21.25 -2.1875 C 23.625 -0.726562 26.210938 0 29.015625 0 C 30.046875 0 31.351562 -0.179688 32.9375 -0.546875 C 34.519531 -0.910156 36.128906 -1.53125 37.765625 -2.40625 C 39.410156 -3.289062 40.78125 -4.476562 41.875 -5.96875 C 42.976562 -7.46875 43.53125 -9.3125 43.53125 -11.5 C 43.53125 -14.476562 42.628906 -17.09375 40.828125 -19.34375 C 39.035156 -21.59375 36.785156 -23.539062 34.078125 -25.1875 C 31.367188 -26.832031 28.617188 -28.140625 25.828125 -29.109375 C 22.660156 -30.265625 19.691406 -31.675781 16.921875 -33.34375 C 14.160156 -35.019531 11.910156 -37.085938 10.171875 -39.546875 C 8.441406 -42.015625 7.578125 -44.953125 7.578125 -48.359375 C 7.578125 -51.703125 8.410156 -54.601562 10.078125 -57.0625 C 11.753906 -59.53125 13.988281 -61.445312 16.78125 -62.8125 C 19.582031 -64.1875 22.628906 -64.875 25.921875 -64.875 C 30.054688 -64.875 33.472656 -64.328125 36.171875 -63.234375 C 38.878906 -62.140625 41.113281 -60.691406 42.875 -58.890625 C 44.644531 -57.097656 46.109375 -55.140625 47.265625 -53.015625 L 45.078125 -44.984375 L 44.25 -44.984375 C 44.25 -44.984375 44.050781 -45.617188 43.65625 -46.890625 C 43.257812 -48.171875 42.632812 -49.769531 41.78125 -51.6875 C 40.9375 -53.601562 39.796875 -55.503906 38.359375 -57.390625 C 36.929688 -59.273438 35.195312 -60.859375 33.15625 -62.140625 C 31.125 -63.421875 28.710938 -64.0625 25.921875 -64.0625 C 24.941406 -64.0625 23.628906 -63.878906 21.984375 -63.515625 C 20.347656 -63.148438 18.722656 -62.523438 17.109375 -61.640625 C 15.492188 -60.753906 14.125 -59.566406 13 -58.078125 C 11.875 -56.585938 11.3125 -54.75 11.3125 -52.5625 C 11.3125 -49.644531 12.207031 -47.046875 14 -44.765625 C 15.800781 -42.484375 18.066406 -40.550781 20.796875 -38.96875 C 23.535156 -37.382812 26.304688 -36.078125 29.109375 -35.046875 C 32.273438 -33.941406 35.238281 -32.535156 38 -30.828125 C 40.769531 -29.128906 43.019531 -27.0625 44.75 -24.625 C 46.488281 -22.195312 47.359375 -19.25 47.359375 -15.78125 C 47.359375 -12.4375 46.503906 -9.53125 44.796875 -7.0625 C 43.097656 -4.601562 40.863281 -2.6875 38.09375 -1.3125 C 35.320312 0.0507812 32.296875 0.734375 29.015625 0.734375 Z M 29.015625 0.734375 "/></g></g></g><g fill="#2c4b99" fill-opacity="1"><g transform="translate(293.209298, 68.787488)"><g><path d="M 54.75 -64.0625 L 54.75 -56.296875 L 53.921875 -56.296875 C 52.160156 -58.242188 50.382812 -59.71875 48.59375 -60.71875 C 46.800781 -61.726562 44.625 -62.398438 42.0625 -62.734375 C 39.507812 -63.066406 36.132812 -63.234375 31.9375 -63.234375 L 31.9375 -7.84375 C 31.9375 -4.863281 32.222656 -2.945312 32.796875 -2.09375 C 33.378906 -1.25 33.789062 -0.828125 34.03125 -0.828125 L 34.03125 0 L 23.359375 0 L 23.359375 -0.828125 C 23.660156 -0.828125 24.082031 -1.25 24.625 -2.09375 C 25.175781 -2.945312 25.453125 -4.863281 25.453125 -7.84375 L 25.453125 -63.234375 C 21.316406 -63.234375 17.957031 -63.066406 15.375 -62.734375 C 12.789062 -62.398438 10.613281 -61.726562 8.84375 -60.71875 C 7.082031 -59.71875 5.320312 -58.242188 3.5625 -56.296875 L 2.734375 -56.296875 L 2.734375 -64.0625 Z M 54.75 -64.0625 "/></g></g></g><g fill="#2c4b99" fill-opacity="1"><g transform="translate(350.696189, 68.787488)"><g><path d="M 28.828125 -35.3125 L 41.796875 -12.859375 C 43.796875 -9.453125 45.523438 -6.59375 46.984375 -4.28125 C 48.453125 -1.976562 49.519531 -0.828125 50.1875 -0.828125 L 50.1875 0 L 39.515625 0 L 39.515625 -0.828125 C 39.878906 -0.828125 39.722656 -1.769531 39.046875 -3.65625 C 38.378906 -5.539062 37.195312 -7.941406 35.5 -10.859375 L 21.625 -34.859375 L 11.3125 -34.859375 L 11.3125 -7.84375 C 11.3125 -4.863281 11.597656 -2.945312 12.171875 -2.09375 C 12.753906 -1.25 13.164062 -0.828125 13.40625 -0.828125 L 13.40625 0 L 2.734375 0 L 2.734375 -0.828125 C 3.035156 -0.828125 3.460938 -1.25 4.015625 -2.09375 C 4.566406 -2.945312 4.84375 -4.863281 4.84375 -7.84375 L 4.84375 -56.203125 C 4.84375 -59.242188 4.566406 -61.175781 4.015625 -62 C 3.460938 -62.820312 3.035156 -63.234375 2.734375 -63.234375 L 2.734375 -64.0625 L 3.5625 -64.0625 C 6.238281 -64.125 9.066406 -64.304688 12.046875 -64.609375 C 15.023438 -64.910156 17.820312 -65.0625 20.4375 -65.0625 C 26.644531 -65.0625 31.554688 -64.40625 35.171875 -63.09375 C 38.796875 -61.789062 41.382812 -60.015625 42.9375 -57.765625 C 44.488281 -55.515625 45.265625 -52.894531 45.265625 -49.90625 C 45.265625 -46.257812 44.03125 -43.128906 41.5625 -40.515625 C 39.101562 -37.898438 34.859375 -36.164062 28.828125 -35.3125 Z M 11.3125 -63.78125 L 11.3125 -35.59375 L 20.4375 -35.59375 C 22.445312 -35.59375 24.515625 -35.816406 26.640625 -36.265625 C 28.773438 -36.722656 30.769531 -37.484375 32.625 -38.546875 C 34.476562 -39.617188 35.984375 -41.082031 37.140625 -42.9375 C 38.296875 -44.789062 38.875 -47.113281 38.875 -49.90625 C 38.875 -52.769531 38.296875 -55.128906 37.140625 -56.984375 C 35.984375 -58.835938 34.476562 -60.296875 32.625 -61.359375 C 30.769531 -62.429688 28.773438 -63.191406 26.640625 -63.640625 C 24.515625 -64.097656 22.445312 -64.328125 20.4375 -64.328125 C 19.039062 -64.328125 17.566406 -64.265625 16.015625 -64.140625 C 14.460938 -64.023438 12.894531 -63.90625 11.3125 -63.78125 Z M 11.3125 -63.78125 "/></g></g></g><g fill="#2c4b99" fill-opacity="1"><g transform="translate(396.776346, 68.787488)"><g><path d="M 3.921875 -23.71875 C 2.765625 -28.039062 2.488281 -32.316406 3.09375 -36.546875 C 3.707031 -40.773438 5.0625 -44.695312 7.15625 -48.3125 C 9.257812 -51.9375 11.984375 -55.070312 15.328125 -57.71875 C 18.671875 -60.363281 22.503906 -62.265625 26.828125 -63.421875 C 31.023438 -64.578125 35.160156 -64.878906 39.234375 -64.328125 C 43.304688 -63.785156 47.125 -62.554688 50.6875 -60.640625 C 54.25 -58.722656 57.335938 -56.210938 59.953125 -53.109375 L 57.765625 -45.078125 L 56.9375 -45.078125 C 55.539062 -47.929688 53.804688 -50.585938 51.734375 -53.046875 C 49.671875 -55.515625 47.359375 -57.628906 44.796875 -59.390625 C 42.242188 -61.160156 39.460938 -62.363281 36.453125 -63 C 33.441406 -63.644531 30.296875 -63.539062 27.015625 -62.6875 C 23.117188 -61.65625 19.863281 -59.785156 17.25 -57.078125 C 14.632812 -54.367188 12.671875 -51.21875 11.359375 -47.625 C 10.054688 -44.039062 9.34375 -40.332031 9.21875 -36.5 L 11.046875 -36.5 C 14.691406 -36.5 18.320312 -36.664062 21.9375 -37 C 25.5625 -37.332031 28.847656 -37.742188 31.796875 -38.234375 C 34.742188 -38.722656 37.113281 -39.132812 38.90625 -39.46875 C 40.707031 -39.800781 41.609375 -39.96875 41.609375 -39.96875 L 42.4375 -39.96875 L 42.4375 -32.21875 L 41.609375 -32.21875 C 41.609375 -32.21875 40.707031 -32.382812 38.90625 -32.71875 C 37.113281 -33.050781 34.742188 -33.457031 31.796875 -33.9375 C 28.847656 -34.425781 25.5625 -34.835938 21.9375 -35.171875 C 18.320312 -35.503906 14.691406 -35.671875 11.046875 -35.671875 L 9.125 -35.671875 C 9.125 -33.972656 9.226562 -32.253906 9.4375 -30.515625 C 9.65625 -28.785156 9.976562 -27.097656 10.40625 -25.453125 C 11.800781 -20.347656 13.910156 -16.09375 16.734375 -12.6875 C 19.566406 -9.28125 22.820312 -6.691406 26.5 -4.921875 C 30.1875 -3.160156 33.988281 -2.203125 37.90625 -2.046875 C 41.832031 -1.898438 45.5625 -2.554688 49.09375 -4.015625 C 52.625 -5.472656 55.648438 -7.707031 58.171875 -10.71875 C 60.691406 -13.726562 62.410156 -17.484375 63.328125 -21.984375 L 64.15625 -21.8125 C 63.300781 -17.550781 61.734375 -13.914062 59.453125 -10.90625 C 57.171875 -7.894531 54.398438 -5.488281 51.140625 -3.6875 C 47.890625 -1.894531 44.394531 -0.707031 40.65625 -0.125 C 36.914062 0.445312 33.144531 0.382812 29.34375 -0.3125 C 25.539062 -1.019531 21.929688 -2.34375 18.515625 -4.28125 C 15.109375 -6.226562 12.128906 -8.8125 9.578125 -12.03125 C 7.023438 -15.257812 5.140625 -19.15625 3.921875 -23.71875 Z M 3.921875 -23.71875 "/></g></g></g><g fill="#2c4b99" fill-opacity="1"><g transform="translate(459.099032, 68.787488)"><g><path d="M 54.75 -64.0625 L 54.75 -56.296875 L 53.921875 -56.296875 C 52.160156 -58.242188 50.382812 -59.71875 48.59375 -60.71875 C 46.800781 -61.726562 44.625 -62.398438 42.0625 -62.734375 C 39.507812 -63.066406 36.132812 -63.234375 31.9375 -63.234375 L 31.9375 -7.84375 C 31.9375 -4.863281 32.222656 -2.945312 32.796875 -2.09375 C 33.378906 -1.25 33.789062 -0.828125 34.03125 -0.828125 L 34.03125 0 L 23.359375 0 L 23.359375 -0.828125 C 23.660156 -0.828125 24.082031 -1.25 24.625 -2.09375 C 25.175781 -2.945312 25.453125 -4.863281 25.453125 -7.84375 L 25.453125 -63.234375 C 21.316406 -63.234375 17.957031 -63.066406 15.375 -62.734375 C 12.789062 -62.398438 10.613281 -61.726562 8.84375 -60.71875 C 7.082031 -59.71875 5.320312 -58.242188 3.5625 -56.296875 L 2.734375 -56.296875 L 2.734375 -64.0625 Z M 54.75 -64.0625 "/></g></g></g><g fill="#2c4b99" fill-opacity="1"><g transform="translate(509.741647, 68.787488)"><g><path d="M 3.921875 -23.8125 C 2.765625 -28.132812 2.488281 -32.410156 3.09375 -36.640625 C 3.707031 -40.867188 5.0625 -44.789062 7.15625 -48.40625 C 9.257812 -52.03125 11.984375 -55.164062 15.328125 -57.8125 C 18.671875 -60.457031 22.503906 -62.359375 26.828125 -63.515625 C 31.023438 -64.671875 35.144531 -64.972656 39.1875 -64.421875 C 43.238281 -63.867188 47.039062 -62.632812 50.59375 -60.71875 C 54.15625 -58.8125 57.242188 -56.304688 59.859375 -53.203125 L 57.765625 -45.171875 L 56.9375 -45.171875 C 55.539062 -48.023438 53.804688 -50.679688 51.734375 -53.140625 C 49.671875 -55.609375 47.34375 -57.722656 44.75 -59.484375 C 42.164062 -61.253906 39.382812 -62.457031 36.40625 -63.09375 C 33.425781 -63.738281 30.296875 -63.632812 27.015625 -62.78125 C 23.117188 -61.75 19.875 -59.910156 17.28125 -57.265625 C 14.695312 -54.617188 12.738281 -51.515625 11.40625 -47.953125 C 10.070312 -44.390625 9.328125 -40.660156 9.171875 -36.765625 C 9.015625 -32.878906 9.425781 -29.140625 10.40625 -25.546875 C 11.800781 -20.441406 13.910156 -16.1875 16.734375 -12.78125 C 19.566406 -9.375 22.820312 -6.785156 26.5 -5.015625 C 30.1875 -3.253906 33.988281 -2.296875 37.90625 -2.140625 C 41.832031 -1.992188 45.5625 -2.648438 49.09375 -4.109375 C 52.625 -5.566406 55.648438 -7.800781 58.171875 -10.8125 C 60.691406 -13.820312 62.410156 -17.578125 63.328125 -22.078125 L 64.0625 -21.90625 C 63.207031 -17.644531 61.640625 -14.007812 59.359375 -11 C 57.078125 -7.988281 54.320312 -5.582031 51.09375 -3.78125 C 47.875 -1.988281 44.394531 -0.800781 40.65625 -0.21875 C 36.914062 0.351562 33.144531 0.289062 29.34375 -0.40625 C 25.539062 -1.101562 21.929688 -2.425781 18.515625 -4.375 C 15.109375 -6.320312 12.128906 -8.90625 9.578125 -12.125 C 7.023438 -15.351562 5.140625 -19.25 3.921875 -23.8125 Z M 3.921875 -23.8125 "/></g></g></g><g fill="#2c4b99" fill-opacity="1"><g transform="translate(574.254495, 68.787488)"><g><path d="M 49.90625 -64.0625 L 49.90625 -63.234375 C 49.664062 -63.234375 49.253906 -62.820312 48.671875 -62 C 48.097656 -61.175781 47.8125 -59.242188 47.8125 -56.203125 L 47.8125 -7.84375 C 47.8125 -4.863281 48.097656 -2.945312 48.671875 -2.09375 C 49.253906 -1.25 49.664062 -0.828125 49.90625 -0.828125 L 49.90625 0 L 39.140625 0 L 39.140625 -0.828125 C 39.453125 -0.828125 39.878906 -1.25 40.421875 -2.09375 C 40.972656 -2.945312 41.25 -4.863281 41.25 -7.84375 L 41.25 -37.59375 L 11.3125 -37.59375 L 11.3125 -7.84375 C 11.3125 -4.863281 11.597656 -2.945312 12.171875 -2.09375 C 12.753906 -1.25 13.164062 -0.828125 13.40625 -0.828125 L 13.40625 0 L 2.734375 0 L 2.734375 -0.828125 C 3.035156 -0.828125 3.460938 -1.25 4.015625 -2.09375 C 4.566406 -2.945312 4.84375 -4.863281 4.84375 -7.84375 L 4.84375 -56.203125 C 4.84375 -59.242188 4.566406 -61.175781 4.015625 -62 C 3.460938 -62.820312 3.035156 -63.234375 2.734375 -63.234375 L 2.734375 -64.0625 L 13.40625 -64.0625 L 13.40625 -63.234375 C 13.164062 -63.234375 12.753906 -62.820312 12.171875 -62 C 11.597656 -61.175781 11.3125 -59.242188 11.3125 -56.203125 L 11.3125 -38.421875 L 41.25 -38.421875 L 41.25 -56.203125 C 41.25 -59.242188 40.972656 -61.175781 40.421875 -62 C 39.878906 -62.820312 39.453125 -63.234375 39.140625 -63.234375 L 39.140625 -64.0625 Z M 49.90625 -64.0625 "/></g></g></g></g></g><g transform="matrix(1, 0, 0, 1, 357, 170)"><g clip-path="url(#9a13ed441c)"><g fill="#2c4b99" fill-opacity="1"><g transform="translate(1.034671, 39.038803)"><g><path d="M 14.125 -9.65625 L 14.125 0 L 11.21875 0 L 11.21875 -9.65625 L 0.046875 -27.9375 L 3.1875 -27.9375 L 12.78125 -12.25 L 22.359375 -27.9375 L 25.3125 -27.9375 Z M 14.125 -9.65625 "/></g></g></g><g fill="#2c4b99" fill-opacity="1"><g transform="translate(29.292301, 39.038803)"><g><path d="M 16.765625 0.234375 C 13.992188 0.234375 11.484375 -0.378906 9.234375 -1.609375 C 6.992188 -2.847656 5.238281 -4.546875 3.96875 -6.703125 C 2.707031 -8.859375 2.078125 -11.28125 2.078125 -13.96875 C 2.078125 -16.65625 2.707031 -19.078125 3.96875 -21.234375 C 5.238281 -23.390625 6.992188 -25.085938 9.234375 -26.328125 C 11.484375 -27.566406 13.992188 -28.1875 16.765625 -28.1875 C 19.535156 -28.1875 22.03125 -27.570312 24.25 -26.34375 C 26.46875 -25.125 28.21875 -23.425781 29.5 -21.25 C 30.78125 -19.082031 31.421875 -16.65625 31.421875 -13.96875 C 31.421875 -11.28125 30.78125 -8.851562 29.5 -6.6875 C 28.21875 -4.519531 26.46875 -2.820312 24.25 -1.59375 C 22.03125 -0.375 19.535156 0.234375 16.765625 0.234375 Z M 16.765625 -2.390625 C 18.972656 -2.390625 20.96875 -2.890625 22.75 -3.890625 C 24.539062 -4.890625 25.941406 -6.273438 26.953125 -8.046875 C 27.960938 -9.816406 28.46875 -11.789062 28.46875 -13.96875 C 28.46875 -16.15625 27.960938 -18.132812 26.953125 -19.90625 C 25.941406 -21.675781 24.539062 -23.054688 22.75 -24.046875 C 20.96875 -25.046875 18.972656 -25.546875 16.765625 -25.546875 C 14.554688 -25.546875 12.550781 -25.046875 10.75 -24.046875 C 8.957031 -23.054688 7.546875 -21.675781 6.515625 -19.90625 C 5.492188 -18.132812 4.984375 -16.15625 4.984375 -13.96875 C 4.984375 -11.789062 5.492188 -9.816406 6.515625 -8.046875 C 7.546875 -6.273438 8.957031 -4.890625 10.75 -3.890625 C 12.550781 -2.890625 14.554688 -2.390625 16.765625 -2.390625 Z M 16.765625 -2.390625 "/></g></g></g><g fill="#2c4b99" fill-opacity="1"><g transform="translate(66.888877, 39.038803)"><g><path d="M 24.234375 -13.96875 L 27.0625 -13.96875 L 27.0625 -3.3125 C 25.757812 -2.164062 24.21875 -1.285156 22.4375 -0.671875 C 20.65625 -0.0664062 18.78125 0.234375 16.8125 0.234375 C 14.007812 0.234375 11.488281 -0.375 9.25 -1.59375 C 7.019531 -2.820312 5.265625 -4.519531 3.984375 -6.6875 C 2.710938 -8.851562 2.078125 -11.28125 2.078125 -13.96875 C 2.078125 -16.65625 2.710938 -19.082031 3.984375 -21.25 C 5.265625 -23.425781 7.019531 -25.125 9.25 -26.34375 C 11.488281 -27.570312 14.019531 -28.1875 16.84375 -28.1875 C 18.976562 -28.1875 20.9375 -27.847656 22.71875 -27.171875 C 24.5 -26.492188 26.003906 -25.488281 27.234375 -24.15625 L 25.390625 -22.28125 C 23.179688 -24.457031 20.375 -25.546875 16.96875 -25.546875 C 14.707031 -25.546875 12.664062 -25.046875 10.84375 -24.046875 C 9.019531 -23.054688 7.585938 -21.675781 6.546875 -19.90625 C 5.503906 -18.132812 4.984375 -16.15625 4.984375 -13.96875 C 4.984375 -11.789062 5.503906 -9.820312 6.546875 -8.0625 C 7.585938 -6.300781 9.007812 -4.914062 10.8125 -3.90625 C 12.625 -2.894531 14.660156 -2.390625 16.921875 -2.390625 C 19.796875 -2.390625 22.234375 -3.109375 24.234375 -4.546875 Z M 24.234375 -13.96875 "/></g></g></g><g fill="#2c4b99" fill-opacity="1"><g transform="translate(101.851437, 39.038803)"><g><path d="M 22.078125 -7.46875 L 6.5 -7.46875 L 3.15625 0 L 0.078125 0 L 12.859375 -27.9375 L 15.765625 -27.9375 L 28.546875 0 L 25.4375 0 Z M 21 -9.859375 L 14.296875 -24.875 L 7.578125 -9.859375 Z M 21 -9.859375 "/></g></g></g><g fill="#2c4b99" fill-opacity="1"><g transform="translate(134.579118, 39.038803)"><g/></g></g><g fill="#2c4b99" fill-opacity="1"><g transform="translate(149.148198, 39.038803)"><g><path d="M 24.546875 0.4375 L 20.671875 -3.546875 C 18.304688 -1.023438 15.195312 0.234375 11.34375 0.234375 C 9.53125 0.234375 7.910156 -0.0625 6.484375 -0.65625 C 5.054688 -1.257812 3.941406 -2.097656 3.140625 -3.171875 C 2.347656 -4.253906 1.953125 -5.484375 1.953125 -6.859375 C 1.953125 -8.535156 2.484375 -10.039062 3.546875 -11.375 C 4.617188 -12.707031 6.429688 -14.101562 8.984375 -15.5625 C 7.648438 -16.945312 6.726562 -18.125 6.21875 -19.09375 C 5.71875 -20.070312 5.46875 -21.109375 5.46875 -22.203125 C 5.46875 -23.984375 6.101562 -25.414062 7.375 -26.5 C 8.65625 -27.59375 10.375 -28.140625 12.53125 -28.140625 C 14.53125 -28.140625 16.113281 -27.644531 17.28125 -26.65625 C 18.457031 -25.675781 19.046875 -24.320312 19.046875 -22.59375 C 19.046875 -21.207031 18.578125 -19.960938 17.640625 -18.859375 C 16.710938 -17.753906 15.101562 -16.535156 12.8125 -15.203125 L 20.484375 -7.3125 C 21.328125 -8.820312 21.953125 -10.613281 22.359375 -12.6875 L 24.671875 -11.96875 C 24.160156 -9.46875 23.335938 -7.328125 22.203125 -5.546875 L 26.1875 -1.4375 Z M 12.53125 -26.03125 C 11.144531 -26.03125 10.0625 -25.679688 9.28125 -24.984375 C 8.5 -24.296875 8.109375 -23.378906 8.109375 -22.234375 C 8.109375 -21.410156 8.316406 -20.625 8.734375 -19.875 C 9.160156 -19.132812 10.003906 -18.125 11.265625 -16.84375 C 13.285156 -18.019531 14.679688 -19.019531 15.453125 -19.84375 C 16.222656 -20.664062 16.609375 -21.570312 16.609375 -22.5625 C 16.609375 -23.625 16.25 -24.46875 15.53125 -25.09375 C 14.8125 -25.71875 13.8125 -26.03125 12.53125 -26.03125 Z M 11.5 -2.109375 C 14.582031 -2.109375 17.082031 -3.160156 19 -5.265625 L 10.578125 -13.9375 C 8.367188 -12.6875 6.84375 -11.550781 6 -10.53125 C 5.164062 -9.519531 4.75 -8.390625 4.75 -7.140625 C 4.75 -5.628906 5.367188 -4.410156 6.609375 -3.484375 C 7.847656 -2.566406 9.476562 -2.109375 11.5 -2.109375 Z M 11.5 -2.109375 "/></g></g></g><g fill="#2c4b99" fill-opacity="1"><g transform="translate(179.960231, 39.038803)"><g/></g></g><g fill="#2c4b99" fill-opacity="1"><g transform="translate(194.529311, 39.038803)"><g><path d="M 42.921875 -27.9375 L 33.5 0 L 30.375 0 L 22.203125 -23.828125 L 13.96875 0 L 10.90625 0 L 1.484375 -27.9375 L 4.515625 -27.9375 L 12.578125 -3.90625 L 20.921875 -27.9375 L 23.671875 -27.9375 L 31.890625 -3.796875 L 40.078125 -27.9375 Z M 42.921875 -27.9375 "/></g></g></g><g fill="#2c4b99" fill-opacity="1"><g transform="translate(242.382343, 39.038803)"><g><path d="M 24.3125 -2.5625 L 24.3125 0 L 4.546875 0 L 4.546875 -27.9375 L 23.71875 -27.9375 L 23.71875 -25.390625 L 7.5 -25.390625 L 7.5 -15.453125 L 21.953125 -15.453125 L 21.953125 -12.9375 L 7.5 -12.9375 L 7.5 -2.5625 Z M 24.3125 -2.5625 "/></g></g></g><g fill="#2c4b99" fill-opacity="1"><g transform="translate(273.194377, 39.038803)"><g><path d="M 4.546875 -27.9375 L 7.5 -27.9375 L 7.5 -2.5625 L 23.15625 -2.5625 L 23.15625 0 L 4.546875 0 Z M 4.546875 -27.9375 "/></g></g></g><g fill="#2c4b99" fill-opacity="1"><g transform="translate(300.813708, 39.038803)"><g><path d="M 4.546875 -27.9375 L 7.5 -27.9375 L 7.5 -2.5625 L 23.15625 -2.5625 L 23.15625 0 L 4.546875 0 Z M 4.546875 -27.9375 "/></g></g></g><g fill="#2c4b99" fill-opacity="1"><g transform="translate(328.433039, 39.038803)"><g><path d="M 27.90625 -27.9375 L 27.90625 0 L 25.46875 0 L 7.5 -22.671875 L 7.5 0 L 4.546875 0 L 4.546875 -27.9375 L 6.984375 -27.9375 L 24.984375 -5.265625 L 24.984375 -27.9375 Z M 27.90625 -27.9375 "/></g></g></g><g fill="#2c4b99" fill-opacity="1"><g transform="translate(364.991983, 39.038803)"><g><path d="M 24.3125 -2.5625 L 24.3125 0 L 4.546875 0 L 4.546875 -27.9375 L 23.71875 -27.9375 L 23.71875 -25.390625 L 7.5 -25.390625 L 7.5 -15.453125 L 21.953125 -15.453125 L 21.953125 -12.9375 L 7.5 -12.9375 L 7.5 -2.5625 Z M 24.3125 -2.5625 "/></g></g></g><g fill="#2c4b99" fill-opacity="1"><g transform="translate(395.804016, 39.038803)"><g><path d="M 12.25 0.234375 C 10.175781 0.234375 8.1875 -0.09375 6.28125 -0.75 C 4.382812 -1.414062 2.914062 -2.296875 1.875 -3.390625 L 3.03125 -5.671875 C 4.039062 -4.660156 5.382812 -3.84375 7.0625 -3.21875 C 8.738281 -2.59375 10.46875 -2.28125 12.25 -2.28125 C 14.757812 -2.28125 16.640625 -2.738281 17.890625 -3.65625 C 19.140625 -4.570312 19.765625 -5.757812 19.765625 -7.21875 C 19.765625 -8.34375 19.421875 -9.238281 18.734375 -9.90625 C 18.054688 -10.570312 17.222656 -11.082031 16.234375 -11.4375 C 15.253906 -11.789062 13.890625 -12.179688 12.140625 -12.609375 C 10.035156 -13.140625 8.359375 -13.648438 7.109375 -14.140625 C 5.859375 -14.640625 4.785156 -15.394531 3.890625 -16.40625 C 3.003906 -17.414062 2.5625 -18.785156 2.5625 -20.515625 C 2.5625 -21.929688 2.929688 -23.21875 3.671875 -24.375 C 4.421875 -25.53125 5.566406 -26.453125 7.109375 -27.140625 C 8.648438 -27.835938 10.566406 -28.1875 12.859375 -28.1875 C 14.453125 -28.1875 16.015625 -27.96875 17.546875 -27.53125 C 19.078125 -27.09375 20.398438 -26.484375 21.515625 -25.703125 L 20.515625 -23.359375 C 19.347656 -24.128906 18.097656 -24.707031 16.765625 -25.09375 C 15.429688 -25.476562 14.128906 -25.671875 12.859375 -25.671875 C 10.410156 -25.671875 8.566406 -25.195312 7.328125 -24.25 C 6.085938 -23.300781 5.46875 -22.082031 5.46875 -20.59375 C 5.46875 -19.476562 5.804688 -18.582031 6.484375 -17.90625 C 7.160156 -17.226562 8.007812 -16.707031 9.03125 -16.34375 C 10.0625 -15.988281 11.441406 -15.597656 13.171875 -15.171875 C 15.222656 -14.660156 16.878906 -14.160156 18.140625 -13.671875 C 19.410156 -13.179688 20.484375 -12.4375 21.359375 -11.4375 C 22.234375 -10.4375 22.671875 -9.085938 22.671875 -7.390625 C 22.671875 -5.972656 22.289062 -4.6875 21.53125 -3.53125 C 20.78125 -2.375 19.617188 -1.457031 18.046875 -0.78125 C 16.472656 -0.101562 14.539062 0.234375 12.25 0.234375 Z M 12.25 0.234375 "/></g></g></g><g fill="#2c4b99" fill-opacity="1"><g transform="translate(424.460979, 39.038803)"><g><path d="M 12.25 0.234375 C 10.175781 0.234375 8.1875 -0.09375 6.28125 -0.75 C 4.382812 -1.414062 2.914062 -2.296875 1.875 -3.390625 L 3.03125 -5.671875 C 4.039062 -4.660156 5.382812 -3.84375 7.0625 -3.21875 C 8.738281 -2.59375 10.46875 -2.28125 12.25 -2.28125 C 14.757812 -2.28125 16.640625 -2.738281 17.890625 -3.65625 C 19.140625 -4.570312 19.765625 -5.757812 19.765625 -7.21875 C 19.765625 -8.34375 19.421875 -9.238281 18.734375 -9.90625 C 18.054688 -10.570312 17.222656 -11.082031 16.234375 -11.4375 C 15.253906 -11.789062 13.890625 -12.179688 12.140625 -12.609375 C 10.035156 -13.140625 8.359375 -13.648438 7.109375 -14.140625 C 5.859375 -14.640625 4.785156 -15.394531 3.890625 -16.40625 C 3.003906 -17.414062 2.5625 -18.785156 2.5625 -20.515625 C 2.5625 -21.929688 2.929688 -23.21875 3.671875 -24.375 C 4.421875 -25.53125 5.566406 -26.453125 7.109375 -27.140625 C 8.648438 -27.835938 10.566406 -28.1875 12.859375 -28.1875 C 14.453125 -28.1875 16.015625 -27.96875 17.546875 -27.53125 C 19.078125 -27.09375 20.398438 -26.484375 21.515625 -25.703125 L 20.515625 -23.359375 C 19.347656 -24.128906 18.097656 -24.707031 16.765625 -25.09375 C 15.429688 -25.476562 14.128906 -25.671875 12.859375 -25.671875 C 10.410156 -25.671875 8.566406 -25.195312 7.328125 -24.25 C 6.085938 -23.300781 5.46875 -22.082031 5.46875 -20.59375 C 5.46875 -19.476562 5.804688 -18.582031 6.484375 -17.90625 C 7.160156 -17.226562 8.007812 -16.707031 9.03125 -16.34375 C 10.0625 -15.988281 11.441406 -15.597656 13.171875 -15.171875 C 15.222656 -14.660156 16.878906 -14.160156 18.140625 -13.671875 C 19.410156 -13.179688 20.484375 -12.4375 21.359375 -11.4375 C 22.234375 -10.4375 22.671875 -9.085938 22.671875 -7.390625 C 22.671875 -5.972656 22.289062 -4.6875 21.53125 -3.53125 C 20.78125 -2.375 19.617188 -1.457031 18.046875 -0.78125 C 16.472656 -0.101562 14.539062 0.234375 12.25 0.234375 Z M 12.25 0.234375 "/></g></g></g></g></g></svg>